<svg t="1735017604857" class="icon" viewBox="0 0 1024 1024" version="1.1" xmlns="http://www.w3.org/2000/svg"
     p-id="14280" width="200" height="200">
    <path d="M714.666667 433.066667s108.8 110.933333 162.133333 155.733333c70.4 61.866667-10.666667 211.2-115.2 87.466667-96-113.066667-106.666667-206.933333-106.666667-206.933334l59.733334-36.266666z"
          fill="#F7B64C" p-id="14281"></path>
    <path d="M832 938.666667c-204.8 53.333333-418.133333 51.2-640 0 23.466667-155.733333 74.666667-307.2 147.2-445.866667l21.333333-40.533333 151.466667-19.2 151.466667 19.2 21.333333 40.533333c72.533333 138.666667 123.733333 290.133333 147.2 445.866667z"
          fill="#F7B64C" p-id="14282"></path>
    <path d="M309.333333 433.066667s-108.8 110.933333-162.133333 155.733333c-70.4 61.866667 10.666667 211.2 115.2 87.466667 96-113.066667 106.666667-206.933333 106.666667-206.933334l-59.733334-36.266666z"
          fill="#F7B64C" p-id="14283"></path>
    <path d="M339.2 590.933333a211.2 166.4 90 1 0 332.8 0 211.2 166.4 90 1 0-332.8 0Z" fill="#FFFFFF"
          p-id="14284"></path>
    <path d="M887.466667 857.6c8.533333 78.933333-53.333333 153.6-140.8 164.266667-87.466667 12.8-164.266667-42.666667-174.933334-121.6-8.533333-78.933333 53.333333-153.6 140.8-164.266667 87.466667-12.8 166.4 42.666667 174.933334 121.6z"
          fill="#FFD15C" p-id="14285"></path>
    <path d="M812.8 921.6c4.266667 38.4-25.6 74.666667-68.266667 81.066667-42.666667 6.4-81.066667-21.333333-85.333333-59.733334-4.266667-38.4 25.6-74.666667 68.266667-81.066666 42.666667-6.4 81.066667 21.333333 85.333333 59.733333zM667.733333 823.466667c6.4 17.066667 4.266667 36.266667-4.266666 40.533333s-23.466667-6.4-29.866667-23.466667c-6.4-17.066667-4.266667-36.266667 4.266667-40.533333 8.533333-4.266667 23.466667 6.4 29.866666 23.466667zM817.066667 825.6c-8.533333 17.066667-23.466667 25.6-32 21.333333-8.533333-6.4-10.666667-23.466667 0-40.533333 8.533333-17.066667 23.466667-25.6 32-21.333333s8.533333 23.466667 0 40.533333z"
          fill="#415A6B" p-id="14286"></path>
    <path d="M740.266667 800c2.133333 19.2-4.266667 36.266667-14.933334 38.4-10.666667 2.133333-21.333333-12.8-23.466666-32-2.133333-19.2 4.266667-36.266667 14.933333-38.4s21.333333 12.8 23.466667 32z"
          fill="#415A6B" p-id="14287"></path>
    <path d="M136.533333 857.6c-8.533333 78.933333 53.333333 151.466667 140.8 164.266667 87.466667 12.8 164.266667-42.666667 174.933334-121.6 8.533333-78.933333-53.333333-153.6-140.8-164.266667s-166.4 42.666667-174.933334 121.6z"
          fill="#FFD15C" p-id="14288"></path>
    <path d="M211.2 921.6c-4.266667 38.4 25.6 74.666667 68.266667 81.066667 42.666667 6.4 81.066667-21.333333 85.333333-59.733334 4.266667-38.4-25.6-74.666667-68.266667-81.066666-42.666667-6.4-81.066667 21.333333-85.333333 59.733333zM356.266667 823.466667c-6.4 17.066667-4.266667 36.266667 4.266666 40.533333 10.666667 4.266667 23.466667-6.4 29.866667-23.466667 6.4-17.066667 4.266667-36.266667-4.266667-40.533333-8.533333-4.266667-23.466667 6.4-29.866666 23.466667zM206.933333 825.6c8.533333 17.066667 23.466667 25.6 32 21.333333 8.533333-6.4 10.666667-23.466667 0-40.533333-8.533333-17.066667-23.466667-25.6-32-21.333333-8.533333 4.266667-8.533333 23.466667 0 40.533333z"
          fill="#415A6B" p-id="14289"></path>
    <path d="M283.733333 800c-2.133333 19.2 4.266667 36.266667 14.933334 38.4 10.666667 2.133333 21.333333-12.8 23.466666-32 2.133333-19.2-4.266667-36.266667-14.933333-38.4-10.666667-2.133333-21.333333 12.8-23.466667 32z"
          fill="#415A6B" p-id="14290"></path>
    <path d="M298.666667 119.466667m-119.466667 0a119.466667 119.466667 0 1 0 238.933333 0 119.466667 119.466667 0 1 0-238.933333 0Z"
          fill="#F7B64C" p-id="14291"></path>
    <path d="M729.6 119.466667m-119.466667 0a119.466667 119.466667 0 1 0 238.933334 0 119.466667 119.466667 0 1 0-238.933334 0Z"
          fill="#F7B64C" p-id="14292"></path>
    <path d="M458.666667 531.2h104.533333c125.866667 0 230.4-100.266667 232.533333-228.266667v-21.333333C787.2 140.8 674.133333 25.6 533.333333 14.933333 364.8 2.133333 226.133333 134.4 226.133333 298.666667v10.666666c4.266667 125.866667 108.8 221.866667 232.533334 221.866667z"
          fill="#FFD15C" p-id="14293"></path>
    <path d="M642.133333 285.866667m-32 0a32 32 0 1 0 64 0 32 32 0 1 0-64 0Z" fill="#415A6B" p-id="14294"></path>
    <path d="M637.866667 283.733333m-14.933334 0a14.933333 14.933333 0 1 0 29.866667 0 14.933333 14.933333 0 1 0-29.866667 0Z"
          fill="#344A5E" p-id="14295"></path>
    <path d="M629.333333 277.333333m-4.266666 0a4.266667 4.266667 0 1 0 8.533333 0 4.266667 4.266667 0 1 0-8.533333 0Z"
          fill="#FFFFFF" p-id="14296"></path>
    <path d="M381.866667 285.866667m-32 0a32 32 0 1 0 64 0 32 32 0 1 0-64 0Z" fill="#415A6B" p-id="14297"></path>
    <path d="M386.133333 283.733333m-14.933333 0a14.933333 14.933333 0 1 0 29.866667 0 14.933333 14.933333 0 1 0-29.866667 0Z"
          fill="#344A5E" p-id="14298"></path>
    <path d="M394.666667 277.333333m-4.266667 0a4.266667 4.266667 0 1 0 8.533333 0 4.266667 4.266667 0 1 0-8.533333 0Z"
          fill="#FFFFFF" p-id="14299"></path>
    <path d="M379.733333 392.533333a132.266667 117.333333 0 1 0 264.533334 0 132.266667 117.333333 0 1 0-264.533334 0Z"
          fill="#FFFFFF" p-id="14300"></path>
    <path d="M416 418.133333l2.133333 2.133334c0 2.133333 2.133333 4.266667 4.266667 6.4 2.133333 2.133333 4.266667 6.4 6.4 10.666666 2.133333 4.266667 6.4 6.4 10.666667 10.666667l6.4 6.4c2.133333 2.133333 4.266667 4.266667 8.533333 6.4 6.4 4.266667 10.666667 6.4 17.066667 8.533333 6.4 2.133333 12.8 4.266667 21.333333 6.4 6.4 2.133333 14.933333 2.133333 21.333333 2.133334h10.666667c4.266667 0 6.4 0 10.666667-2.133334 6.4-2.133333 14.933333-4.266667 21.333333-6.4 6.4-2.133333 12.8-6.4 17.066667-8.533333 2.133333-2.133333 4.266667-4.266667 8.533333-6.4l6.4-6.4 10.666667-10.666667c2.133333-4.266667 4.266667-6.4 6.4-10.666666 2.133333-2.133333 2.133333-4.266667 4.266666-6.4 0-2.133333 2.133333-2.133333 2.133334-2.133334v2.133334c0 2.133333 0 4.266667-2.133334 8.533333s-2.133333 6.4-4.266666 10.666667-6.4 8.533333-8.533334 12.8c-4.266667 4.266667-8.533333 8.533333-14.933333 12.8-6.4 4.266667-10.666667 8.533333-19.2 10.666666-6.4 4.266667-14.933333 6.4-21.333333 8.533334-4.266667 0-8.533333 2.133333-12.8 2.133333h-12.8c-8.533333 0-17.066667 0-23.466667-2.133333-8.533333-2.133333-14.933333-4.266667-21.333333-8.533334-6.4-2.133333-12.8-6.4-19.2-10.666666-6.4-4.266667-10.666667-8.533333-14.933334-12.8-4.266667-4.266667-6.4-8.533333-8.533333-12.8-2.133333-4.266667-4.266667-8.533333-4.266667-10.666667-2.133333-2.133333-2.133333-6.4-2.133333-8.533333-6.4 0-6.4-2.133333-6.4-2.133334z"
          fill="#415A6B" p-id="14301"></path>
    <path d="M556.8 332.8c14.933333 21.333333-6.4 40.533333-23.466667 53.333333-12.8 8.533333-29.866667 8.533333-42.666666 0-12.8-8.533333-27.733333-23.466667-27.733334-38.4 0-32 29.866667-27.733333 64-27.733333 10.666667 0 21.333333 4.266667 29.866667 12.8z"
          fill="#415A6B" p-id="14302"></path>
    <path d="M505.6 349.866667h10.666667v134.4h-10.666667z" fill="#415A6B" p-id="14303"></path>
</svg>