<svg t="1735018149474" class="icon" viewBox="0 0 1024 1024" version="1.1" xmlns="http://www.w3.org/2000/svg"
     p-id="35378" width="200" height="200">
    <path d="M772.323556 983.608889c-65.308444 0-125.155556-34.702222-157.696-91.136-1.251556 0-2.503111-0.113778-3.754667-0.113778H140.856889c-26.737778 0-48.469333-20.138667-48.469333-44.942222 0-5.347556 1.251556-130.161778 105.585777-177.038222 33.336889-14.904889 43.804444-16.270222 56.092445-17.749334 10.922667-1.365333 23.324444-2.844444 59.847111-16.611555 51.427556-19.228444 76.344889-30.037333 86.926222-34.929778l-3.072-35.043556c-21.845333-7.623111-82.261333-34.702222-98.076444-104.561777-25.6-1.934222-36.977778-31.175111-39.025778-58.481778-0.227556-3.072-0.796444-7.168-1.365333-11.946667-3.640889-28.785778-5.916444-55.751111 6.485333-69.859555 2.844444-3.185778 6.257778-5.575111 10.126222-6.940445-7.054222-46.762667-9.216-74.410667-7.281778-91.363555 0.796444-7.168 1.024-12.970667 1.251556-17.863111 0.796444-21.276444 2.389333-31.857778 30.151111-54.613334 0-3.413333-1.592889-10.695111-2.616889-15.246222-2.616889-11.605333-5.12-22.641778-0.910222-31.061333 8.760889-17.863111 38.001778-19.342222 75.434667-19.569778 8.192 0 18.318222-0.113778 20.935111-0.796445 30.151111-12.174222 63.715556-19.228444 99.328-20.821333 191.374222 7.281778 219.477333 124.359111 223.573333 160.085333 2.161778 18.773333-1.365333 50.176-7.736889 91.363556 3.868444 1.365333 7.281778 3.754667 10.126222 6.940444 12.401778 14.108444 10.012444 41.301333 6.257778 70.200889-0.568889 4.551111-1.137778 8.533333-1.365333 11.491556-1.820444 27.306667-13.084444 56.433778-38.912 58.368-14.677333 68.494222-63.601778 95.800889-82.375111 103.992889l-3.072 35.157333c8.078222 3.640889 24.120889 10.467556 53.134222 21.959111 13.312 4.437333 27.306667 9.671111 41.073778 15.36 24.917333-12.174222 51.655111-18.318222 79.530666-18.318222 100.352 0 182.044444 81.692444 182.044445 182.044444s-81.806222 182.044444-182.158222 182.044445z"
          fill="#401F11" p-id="35379"></path>
    <path d="M492.657778 74.524444c145.863111 5.347556 203.662222 79.189333 211.740444 149.731556 2.275556 20.138667-2.844444 58.140444-9.443555 100.238222 1.365333-0.227556 2.616889-0.341333 3.868444-0.341333 27.306667 0 14.336 58.595556 12.856889 77.937778-1.365333 19.114667-8.874667 48.014222-30.378667 48.014222-2.048 0-4.209778-0.227556-6.599111-0.796445-13.198222 86.016-83.740444 107.975111-83.740444 107.975112l-4.437334 50.176s12.743111 6.485333 60.984889 25.6c16.042667 5.347556 31.175111 11.150222 45.738667 17.294222a169.756444 169.756444 0 0 1 79.075556-19.456c94.208 0 170.666667 76.458667 170.666666 170.666666 0 94.208-76.458667 170.666667-170.666666 170.666667-65.422222 0-122.197333-36.864-150.869334-90.908444l-10.012444-0.341334H140.856889c-20.48 0-37.091556-15.018667-37.091556-33.564444v-0.113778s0-122.197333 98.872889-166.570667c62.577778-28.103111 38.456889-5.347556 115.256889-34.019555 76.8-28.672 95.004444-38.684444 95.004445-38.684445L408.462222 557.511111s-86.243556-22.072889-99.441778-108.088889c-2.275556 0.568889-4.551111 0.796444-6.599111 0.796445-21.504 0-28.899556-29.013333-30.378666-48.128-1.365333-19.342222-14.222222-78.051556 13.084444-78.051556 1.251556 0 2.503111 0.113778 3.868445 0.341333-6.599111-42.097778-11.377778-80.099556-9.102223-100.238222 3.868444-34.019556-5.347556-38.798222 28.899556-66.332444 8.419556-6.826667-7.281778-38.343111-2.161778-48.810667 9.443556-19.114667 79.303111-10.353778 89.998222-14.677333 27.989333-10.922667 60.188444-18.204444 96.028445-19.797334m0-22.755555h-1.024c-36.295111 1.592889-70.656 8.647111-101.944889 21.162667-3.299556 0.341333-11.605333 0.455111-17.863111 0.455111-34.247111 0.113778-72.931556 0.341333-85.560889 25.827555-5.916444 12.060444-2.844444 25.486222 0 38.570667 0.568889 2.389333 1.251556 5.347556 1.706667 7.964444-25.372444 21.959111-28.672 35.498667-29.582223 58.936889-0.227556 4.892444-0.341333 10.353778-1.137777 17.066667-1.934222 16.952889-0.113778 43.349333 6.144 86.471111-2.275556 1.592889-4.323556 3.527111-6.257778 5.575111-16.839111 19.114667-12.515556 53.589333-9.329778 78.848 0.568889 4.437333 1.024 8.305778 1.251556 11.150222 2.730667 36.750222 18.090667 61.44 41.073777 67.697778 17.635556 63.488 69.973333 92.046222 96.597334 102.741333l1.820444 20.024889c-12.856889 5.688889-36.864 15.587556-78.848 31.288889-35.271111 13.198222-46.990222 14.677333-57.230222 15.928889-15.246222 1.934222-26.851556 4.096-59.278222 18.659556-110.933333 49.834667-112.184889 181.703111-112.184889 187.278222 0 31.061333 26.851556 56.32 59.847111 56.32h467.285333c35.271111 56.547556 96.938667 91.249778 164.181334 91.249778 106.609778 0 193.422222-86.812444 193.422222-193.422223s-86.812444-193.422222-193.422222-193.422222c-27.420444 0-54.727111 5.916444-79.758223 17.294222-12.288-5.006222-24.803556-9.671111-37.205333-13.767111-21.390222-8.533333-35.612444-14.449778-44.600889-18.318222l1.820445-20.593778c22.641778-11.377778 65.080889-40.163556 81.009777-101.603555 22.869333-6.485333 38.456889-31.516444 40.846223-67.584 0.227556-2.616889 0.682667-6.371556 1.251555-10.695111 4.096-31.630222 6.599111-61.44-8.988444-79.189334a35.384889 35.384889 0 0 0-6.144-5.575111c5.802667-39.139556 8.760889-67.697778 6.599111-86.471111-4.437333-38.001778-34.133333-162.474667-233.699556-169.870222h-0.796444z"
          fill="#42210B" p-id="35380"></path>
    <path d="M685.624889 229.148444s-70.656-75.776-193.422222-74.638222c-122.766222 1.024-202.752 68.494222-202.752 68.494222-2.389333 20.138667-6.940444 58.254222-0.341334 100.352-32.426667-5.688889-18.432 57.457778-17.066666 77.596445 1.592889 20.935111 10.353778 53.703111 36.864 47.217778 13.198222 86.016 99.441778 108.088889 99.441777 108.088889l4.437334 50.517333s-18.204444 10.012444-95.004445 38.684444-52.679111 5.916444-115.256889 34.019556c-98.872889 44.373333-98.872889 166.570667-98.872888 166.570667v0.113777c0 18.545778 16.611556 33.564444 37.091555 33.564445h470.698667c354.417778 18.659556 272.497778-169.642667 35.953778-247.921778-48.241778-19.114667-60.984889-25.6-60.984889-25.6l4.437333-50.176s70.542222-21.959111 83.740444-107.975111c26.510222 6.485333 35.498667-26.282667 36.864-47.217778 1.592889-20.252444 15.701333-83.171556-16.725333-77.596444 6.599111-42.097778-5.461333-71.338667-7.850667-91.477334l-1.251555-2.616889z"
          fill="#FFD5C7" p-id="35381"></path>
    <path d="M697.457778 323.015111c6.599111-42.097778 9.329778-78.506667 6.940444-98.645333-8.078222-70.542222-65.877333-144.384-211.740444-149.731556-35.84 1.592889-68.039111 8.874667-95.914667 20.138667-10.695111 4.323556-80.554667-4.437333-89.998222 14.677333-5.12 10.353778 10.581333 41.984 2.161778 48.810667-34.247111 27.534222-25.031111 32.312889-28.899556 66.332444-2.389333 20.138667-0.113778 56.547556 6.599111 98.645334 0 0 8.305778-2.844444 16.839111 7.964444 4.323556-13.994667 7.850667-108.544 46.762667-116.053333 0 0 32.085333-56.433778 97.166222-10.24 43.576889 30.947556 62.691556 53.248 155.761778 37.432889-74.410667-21.504-63.601778-50.176-63.601778-50.176s-5.006222 21.390222 84.423111 40.96c54.272 11.832889 59.505778 101.831111 59.505778 101.831111s3.413333-13.084444 13.994667-11.946667z"
          fill="#4F1B09" p-id="35382"></path>
    <path d="M408.348444 556.373333s95.914667 31.402667 182.727112-0.341333l-4.437334 50.176s0.113778 66.104889-86.926222 68.949333-86.926222-68.266667-86.926222-68.266666l-4.437334-50.517334z"
          fill="#F5C5B5" p-id="35383"></path>
    <path d="M412.785778 606.890667s-18.204444 10.012444-95.004445 38.684444-52.679111 5.916444-115.256889 34.019556c-98.872889 44.373333-98.872889 166.570667-98.872888 166.570666v0.113778c0 18.545778 16.611556 33.564444 37.091555 33.564445h470.698667c354.417778 18.659556 272.497778-169.642667 35.953778-247.921778-48.241778-19.114667-60.984889-25.6-60.984889-25.6s-17.976889 50.858667-89.201778 50.858666c-67.470222-0.113778-84.423111-50.289778-84.423111-50.289777z"
          fill="#4DA9FF" p-id="35384"></path>
    <path d="M772.323556 800.312889m-182.044445 0a182.044444 182.044444 0 1 0 364.088889 0 182.044444 182.044444 0 1 0-364.088889 0Z"
          fill="#FFFFFF" p-id="35385"></path>
    <path d="M772.323556 629.646222c94.208 0 170.666667 76.458667 170.666666 170.666667s-76.458667 170.666667-170.666666 170.666667-170.666667-76.458667-170.666667-170.666667 76.458667-170.666667 170.666667-170.666667m0-22.755555c-106.609778 0-193.422222 86.812444-193.422223 193.422222s86.812444 193.422222 193.422223 193.422222 193.422222-86.812444 193.422222-193.422222-86.812444-193.422222-193.422222-193.422222z"
          fill="#42210B" p-id="35386"></path>
    <path d="M772.323556 800.312889m-136.533334 0a136.533333 136.533333 0 1 0 273.066667 0 136.533333 136.533333 0 1 0-273.066667 0Z"
          fill="#FF4B1F" p-id="35387"></path>
    <path d="M748.316444 813.511111h85.788445c8.192 0 14.904889 6.712889 14.904889 14.904889 0 8.192-6.712889 14.904889-14.904889 14.904889h-85.788445c-8.192 0-14.904889-6.712889-14.904888-14.904889 0-8.305778 6.599111-14.904889 14.904888-14.904889z"
          fill="#FFFFFF" p-id="35388"></path>
    <path d="M763.107556 742.513778v85.788444c0 8.192-6.712889 14.904889-14.904889 14.904889-8.192 0-14.904889-6.712889-14.904889-14.904889v-85.788444c0-8.192 6.712889-14.904889 14.904889-14.904889 8.305778 0.113778 14.904889 6.712889 14.904889 14.904889z"
          fill="#FFFFFF" p-id="35389"></path>
</svg>