<svg t="1735017948165" class="icon" viewBox="0 0 1024 1024" version="1.1" xmlns="http://www.w3.org/2000/svg"
     p-id="25879" width="200" height="200">
    <path d="M766.575536 940.824112l-0.006 0.006-11.241714-14.735626 4.561884-14.731626c-6.071846-22.197436-13.901647-41.996934-22.549428-59.47449l-19.215512-11.851699 4.061897-15.38161c-32.083185-51.564691-67.638283-75.796075-67.638282-75.796075H369.449619s-35.555097 24.235385-67.638282 75.802075l-0.117997 17.775549-14.993619 9.421761a330.209616 330.209616 0 0 0-22.591427 59.500489l6.995822 20.48148-13.675652 8.989772c-3.805903 20.897469-6.023847 43.586893-6.023847 68.14427h115.297072l12.587681-9.929748 17.411558 9.929748h100.297453l14.999619-9.929748 14.999619 9.929748h100.297454l17.411557-9.929748 12.587681 9.929748h115.297072c0.002-24.557376-2.207944-47.2548-6.015847-68.15027z"
          fill="#FF889E" p-id="25880"></path>
    <path d="M314.955003 927.778443c0-71.844176 35.379102-144.300336 86.519803-178.919457h-32.027187s-35.555097 24.235385-67.638282 75.802075l-0.117997 17.775549-14.993619 9.421761a330.209616 330.209616 0 0 0-22.591427 59.500489l6.995823 20.48148-13.675653 8.989772c-3.805903 20.897469-6.023847 43.586893-6.023847 68.14427h70.018222c-5.221867-24.393381-6.465836-51.97868-6.465836-81.195939z"
          fill="#FF748F" p-id="25881"></path>
    <path d="M93.982614 433.017005C93.982614 202.520858 281.505852 14.999619 512 14.999619s418.017386 187.521239 418.017386 418.017386z"
          fill="#5C586F" p-id="25882"></path>
    <path d="M858.437204 453.468486m-97.823516 0a97.823516 97.823516 0 1 0 195.647032 0 97.823516 97.823516 0 1 0-195.647032 0Z"
          fill="#FFBD86" p-id="25883"></path>
    <path d="M224.09331 399.499856c0-147.29826 63.126397-278.776922 161.939888-365.09073-169.123706 53.56664-292.050585 211.994617-292.050584 398.607879h131.230668a512.134997 512.134997 0 0 1-1.119972-33.517149z"
          fill="#4F4C5F" p-id="25884"></path>
    <path d="M849.90142 356.306953c-6.043847-26.709322-24.895368-48.576767-50.39472-58.560513-82.393908-32.257181-136.754528-112.439145-136.754528-112.439145-72.270165 122.416892-234.510046 125.366817-234.510045 125.366817 48.672764-48.672764 19.173513-125.366817 19.173513-125.366817-56.210573 64.726357-141.474408 89.617725-203.500833 99.095484-32.105185 4.905875-58.448516 28.131286-66.782305 59.522489-7.733804 29.12926-11.767701 59.766482-11.563706 91.377679 1.217969 188.723208 155.268058 342.843295 343.991266 344.143262 192.451114 1.323966 348.875142-154.284083 348.875142-346.429204a347.081187 347.081187 0 0 0-8.533784-76.710052z"
          fill="#FED2A4" p-id="25885"></path>
    <path d="M367.895659 747.885011c-88.341757-86.105814-143.802349-210.30266-143.802349-348.385155 0-39.213004 4.501886-77.294037 12.929672-113.713112-28.935265 6.969823-52.160676 29.029263-59.88848 58.138524a345.649224 345.649224 0 0 0-2.975924 12.163691 81.009943 81.009943 0 0 0-8.595782-0.443989c-54.026628 0-97.821516 43.796888-97.821516 97.823516s43.796888 97.823516 97.821516 97.823516c8.123794 0 14.635628-1.007974 19.875496-2.873927 31.449201 88.357757 97.891514 160.481925 182.457367 199.466936z"
          fill="#FFBD86" p-id="25886"></path>
    <path d="M224.09331 500.897282a77.60003 61.796431 0 1 0 155.20006 0 77.60003 61.796431 0 1 0-155.20006 0Z"
          fill="#FF9DB0" p-id="25887"></path>
    <path d="M644.70663 500.897282a77.60003 61.796431 0 1 0 155.20006 0 77.60003 61.796431 0 1 0-155.20006 0Z"
          fill="#FF9DB0" p-id="25888"></path>
    <path d="M331.902573 409.687598v31.721194a14.999619 14.999619 0 0 0 29.999238 0v-31.721194a14.999619 14.999619 0 0 0-29.999238 0zM677.067809 394.687979a14.999619 14.999619 0 0 0-14.999619 14.999619v31.721194a14.999619 14.999619 0 0 0 29.999238 0v-31.721194a14.999619 14.999619 0 0 0-14.999619-14.999619zM544.199182 430.611067c-8.131794 9.331763-19.873495 14.683627-32.215182 14.683627s-24.083389-5.351864-32.215182-14.681628a14.999619 14.999619 0 0 0-22.617425 19.7095 72.722154 72.722154 0 0 0 54.832607 24.973366c21.015466 0 40.998959-9.101769 54.832608-24.971366 5.441862-6.245841 4.791878-15.719601-1.453963-21.163463s-15.719601-4.793878-21.163463 1.449964z"
          p-id="25889"></path>
    <path d="M800.582673 110.465195C721.060692 39.231004 618.567294 0 511.986 0c-84.615852 0-166.659768 24.541377-237.265975 70.968198a14.999619 14.999619 0 0 0 16.481581 25.065364C356.899938 52.832659 433.246 29.999238 511.986 29.999238c99.183482 0 194.56706 36.511073 268.579181 102.81139 64.752356 58.002527 108.755239 134.656581 126.104798 218.622449-14.039644-6.653831-30.073236-10.429735-45.818837-10.761727-9.347763-25.265358-29.363254-46.504819-55.89058-56.892555-49.856734-19.519504-101.535422-65.76633-129.806705-106.887286-6.129844-9.04377-19.6995-8.735778-25.333356 0.79198-39.391 66.736306-114.093103 102.703392-190.329168 114.671088 24.869369-51.154701 3.035923-109.50322 1.909952-112.429145-4.023898-10.457734-17.871546-13.037669-25.325357-4.449887-48.158777 55.456592-122.404892 83.09389-194.441063 94.10161-38.671018 5.90985-69.618232 34.129133-79.17399 71.112195-15.099617 0.40199-30.951214 4.013898-45.162853 10.747727 17.479556-84.615852 61.998426-161.731894 127.572761-219.908417a14.999619 14.999619 0 0 0-19.909495-22.44143c-78.540006 69.682231-128.938726 164.683819-142.332386 267.977196-18.547529 20.113489-29.903241 46.952808-29.903241 76.40406 0 66.056323 56.886556 118.484992 123.28887 112.311149 31.799193 79.703976 91.279682 145.7223 166.339776 186.003277-62.61041 57.562538-105.96131 148.502229-105.961309 257.19147a14.999619 14.999619 0 0 0 14.999619 14.999619h521.188767a14.999619 14.999619 0 0 0 14.999619-14.999619c0-107.52727-42.624918-198.760953-105.641318-256.895478a362.198804 362.198804 0 0 0 76.314062-54.536615 14.999619 14.999619 0 0 0 0.751981-21.199462 14.999619 14.999619 0 0 0-21.199461-0.751981c-68.660257 63.948376-157.603998 93.377629-244.961781 88.313758C286.245732 751.974907 137.479509 551.811989 191.618135 347.77317c6.761828-25.469353 28.183284-44.51287 54.550615-48.542768 70.188218-10.729728 141.232414-36.259079 193.215094-84.183862 3.739905 23.607401 3.787904 59.47449-21.761448 85.021841-9.331763 9.333763-2.923926 25.717347 10.879724 25.60335 22.265435-0.40999 60.156473-6.395838 94.497601-17.503556 55.744585-18.027542 106.151305-49.552742 140.618429-96.911539 34.187132 41.990934 80.179964 80.789949 130.408689 100.455449 35.641095 13.953646 41.068957 47.492794 41.184954 47.716789 21.053465 89.197735 2.925926 191.937127-58.860505 273.505055a14.999619 14.999619 0 1 0 23.913393 18.11354c20.047491-26.469328 36.123083-55.084601 48.05078-85.239835 102.855388 9.203766 162.383877-113.537117 93.029638-188.747208-13.301662-102.551396-63.142397-197.064996-140.762426-266.595231z m-173.3016 665.20111v48.988756h-100.295453v-30.517225c35.419101-1.441963 69.344239-8.031796 100.295453-18.471531z m117.105027 135.692555h-87.103789v-56.70656h64.660358a310.35612 310.35612 0 0 1 22.443431 56.70656z m-117.105027 0h-100.295453v-56.70656h100.295453z m-325.251742-56.70456h64.660359v56.70656H279.585901a310.244123 310.244123 0 0 1 22.44343-56.70656z m94.659597 0h100.297453v56.70656h-100.297453z m0-79.141991c32.335179 10.985721 65.914326 17.205563 100.297453 18.609528v30.533224h-100.297453z m100.297453 165.845789V993.974762h-100.297453v-52.616664z m29.999239 0h100.295453V993.974762h-100.295453z m-160.29593-171.071656v54.368619H319.684883c14.763625-22.113439 30.887216-40.244978 47.004807-54.368619z m-94.15361 171.071656h94.15361V993.974762h-100.015461a359.456873 359.456873 0 0 1 5.861851-52.616664zM657.280311 993.974762v-52.616664h94.15361A359.456873 359.456873 0 0 1 757.295772 993.974762z m47.004807-169.319701h-47.004807v-54.368619c15.953595 13.979645 32.197182 32.161183 47.004807 54.368619zM165.680793 536.290383c-75.498083 0-111.135178-92.361655-56.658561-143.306361 1.247968-0.853978 17.697551-18.363534 46.810811-21.753448-9.215766 53.494642-6.601832 110.297199 9.84775 165.059809z m692.838409-0.002c16.263587-54.73261 18.785523-112.055155 9.629755-165.055809 41.152955 4.783879 73.094144 39.926986 73.094144 82.235912 0.002 45.636841-37.101058 82.767898-82.723899 82.819897z"
          p-id="25890"></path>
</svg>