<svg t="1735389394893" class="icon" viewBox="0 0 1024 1024" version="1.1" xmlns="http://www.w3.org/2000/svg" p-id="5898"
     width="200" height="200">
    <path d="M448.743164 436.165758H134.852553c-29.389274 0-53.434674 24.0454-53.434674 53.438738v448.881332c0 29.38521 24.0454 53.434674 53.434674 53.434674h732.110706c29.393338 0 53.438738-24.049464 53.438738-53.434674V489.604496c0-29.393338-24.0454-53.438738-53.438738-53.438738h-68.641347"
          fill="#9898B3" p-id="5899"></path>
    <path d="M866.963259 1008.179695H134.852553c-38.427126 0-69.689803-31.262677-69.689803-69.689803V489.604496c0-38.43119 31.262677-69.693867 69.689803-69.693867h313.890611a16.255129 16.255129 0 0 1 0 32.510258H134.852553c-20.501782 0-37.179545 16.681826-37.179545 37.183609v448.881332c0 20.501782 16.677763 37.179545 37.179545 37.179545h732.110706c20.505846 0 37.183608-16.677763 37.183609-37.179545V489.604496c0-20.501782-16.677763-37.183608-37.183609-37.183609h-68.641347a16.255129 16.255129 0 0 1 0-32.510258h68.641347c38.43119 0 69.693867 31.266741 69.693867 69.693867v448.881332c0 38.427126-31.262677 69.693867-69.693867 69.693867z"
          fill="#6E6E96" p-id="5900"></path>
    <path d="M81.413815 938.485828c0 29.38521 24.0454 53.434674 53.434674 53.434674H232.818154c29.393338 0 53.438738-24.049464 53.438737-53.434674V489.604496c0-29.393338-24.0454-53.438738-53.438737-53.438738H134.852553c-29.389274 0-53.434674 24.0454-53.434674 53.438738l-0.004064 448.881332z"
          fill="#9898B3" p-id="5901"></path>
    <path d="M88.537626 541.994777h42.755054v349.131732H88.537626z" fill="#F0F0FF" opacity=".25" p-id="5902"></path>
    <path d="M232.818154 1008.179695H134.848489c-38.427126 0-69.689803-31.262677-69.689803-69.689803l0.004064-448.885396c0-38.43119 31.262677-69.693867 69.689803-69.693867H232.818154c38.43119 0 69.693867 31.266741 69.693867 69.693867v448.881332c0 38.427126-31.266741 69.693867-69.693867 69.693867zM134.852553 452.420887c-20.501782 0-37.179545 16.681826-37.179545 37.183609v448.881332a36.899144 36.899144 0 0 0 10.931575 26.243907 36.899144 36.899144 0 0 0 26.243906 10.935638H232.818154c20.501782 0 37.183608-16.677763 37.183608-37.179545V489.604496c0-20.501782-16.681826-37.183608-37.183608-37.183609H134.852553z"
          fill="#6E6E96" p-id="5903"></path>
    <path d="M866.963259 436.165758H134.852553c-29.389274 0-53.434674 24.0454-53.434674 53.438738v40.975117h838.988182V489.604496c-0.004064-29.393338-24.049464-53.438738-53.442802-53.438738z"
          fill="#BBBBCC" p-id="5904"></path>
    <path d="M88.935876 504.173155h823.679914v12.406728H88.935876z" fill="#6E6E96" opacity=".2" p-id="5905"></path>
    <path d="M88.537626 538.593392h824.736497v15.137589H88.537626z" fill="#6E6E96" opacity=".15" p-id="5906"></path>
    <path d="M141.399306 476.734497h718.761182c28.852855 0 52.455302 22.525545 52.455302 50.045479v-30.027287c0-36.886952-23.606512-50.057671-52.455302-50.057671H141.399306c-28.852855 0-52.467494 22.525545-52.467493 50.057671v30.027287c0.004064-27.519934 23.610575-50.045479 52.467493-50.045479z"
          fill="#F0F0FF" opacity=".2" p-id="5907"></path>
    <path d="M920.406061 546.834742H81.417879a16.255129 16.255129 0 0 1-16.255129-16.255129V489.604496c0-38.43119 31.262677-69.693867 69.689803-69.693867h732.110706c38.427126 0 69.693867 31.262677 69.697931 69.693867v40.975117a16.255129 16.255129 0 0 1-16.255129 16.255129z m-822.733053-32.510259h806.477923v-24.719987c-0.004064-20.501782-16.68589-37.183608-37.187672-37.183609H134.852553c-20.501782 0-37.179545 16.681826-37.179545 37.183609v24.719987z"
          fill="#6E6E96" p-id="5908"></path>
    <path d="M81.413815 938.485828c0 29.38521 24.0454 53.434674 53.434674 53.434674h732.11477c29.389274 0 53.434674-24.049464 53.434674-53.434674v-40.962926H81.413815v40.962926z"
          fill="#BBBBCC" p-id="5909"></path>
    <path d="M866.963259 1008.179695H134.848489c-38.427126 0-69.689803-31.262677-69.689803-69.689803v-40.962926a16.255129 16.255129 0 0 1 16.255129-16.255129h838.984118a16.255129 16.255129 0 0 1 16.25513 16.255129v40.962926c0 38.423062-31.262677 69.689803-69.689804 69.689803z m-769.294314-94.401663v24.707796c0 20.501782 16.677763 37.179545 37.179544 37.179545h732.11477c20.501782 0 37.179545-16.677763 37.179545-37.179545v-24.707796H97.668945z"
          fill="#6E6E96" p-id="5910"></path>
    <path d="M312.980324 564.414665h17.811558v17.815621h-17.811558zM359.742267 564.414665h17.807494v17.815621h-17.807494zM406.500147 564.414665h17.807494v17.815621h-17.807494zM453.253963 564.414665h17.811558v17.815621h-17.811558zM500.015906 564.414665h17.811558v17.815621h-17.811558zM546.773785 564.414665h17.819686v17.815621h-17.819686zM593.535729 564.414665h17.80343v17.815621h-17.80343zM640.293608 564.414665h17.811558v17.815621h-17.811558zM687.051488 564.414665h17.811558v17.815621h-17.811558zM733.813431 564.414665h17.807494v17.815621h-17.807494zM780.571311 564.414665h17.807494v17.815621h-17.807494zM827.321063 564.414665h17.815621v17.815621h-17.815621zM874.083006 564.414665h17.819685v17.815621H874.083006z"
          fill="#6E6E96" opacity=".37" p-id="5911"></path>
    <path d="M312.980324 612.513592h17.811558v17.815622h-17.811558zM359.742267 612.513592h17.807494v17.815622h-17.807494zM406.500147 612.513592h17.807494v17.815622h-17.807494zM453.253963 612.513592h17.811558v17.815622h-17.811558zM500.015906 612.513592h17.811558v17.815622h-17.811558zM546.773785 612.513592h17.819686v17.815622h-17.819686zM593.535729 612.513592h17.80343v17.815622h-17.80343zM640.293608 612.513592h17.811558v17.815622h-17.811558zM687.051488 612.513592h17.811558v17.815622h-17.811558zM733.813431 612.513592h17.807494v17.815622h-17.807494zM780.571311 612.513592h17.807494v17.815622h-17.807494zM827.321063 612.513592h17.815621v17.815622h-17.815621zM874.083006 612.513592h17.819685v17.815622H874.083006z"
          fill="#6E6E96" opacity=".37" p-id="5912"></path>
    <path d="M312.980324 660.604392h17.811558v17.819686h-17.811558zM359.742267 660.604392h17.807494v17.819686h-17.807494zM406.500147 660.604392h17.807494v17.819686h-17.807494zM453.253963 660.604392h17.811558v17.819686h-17.811558zM500.015906 660.604392h17.811558v17.819686h-17.811558zM546.773785 660.604392h17.819686v17.819686h-17.819686zM593.535729 660.604392h17.80343v17.819686h-17.80343zM640.293608 660.604392h17.811558v17.819686h-17.811558zM687.051488 660.604392h17.811558v17.819686h-17.811558zM733.813431 660.604392h17.807494v17.819686h-17.807494zM780.571311 660.604392h17.807494v17.819686h-17.807494zM827.321063 660.604392h17.815621v17.819686h-17.815621zM874.083006 660.604392h17.819685v17.819686H874.083006z"
          fill="#6E6E96" opacity=".37" p-id="5913"></path>
    <path d="M312.980324 708.699256h17.811558v17.811558h-17.811558zM359.742267 708.699256h17.807494v17.811558h-17.807494zM406.500147 708.699256h17.807494v17.811558h-17.807494zM453.253963 708.699256h17.811558v17.811558h-17.811558zM500.015906 708.699256h17.811558v17.811558h-17.811558zM546.773785 708.699256h17.819686v17.811558h-17.819686zM593.535729 708.699256h17.80343v17.811558h-17.80343zM640.293608 708.699256h17.811558v17.811558h-17.811558zM687.051488 708.699256h17.811558v17.811558h-17.811558zM733.813431 708.699256h17.807494v17.811558h-17.807494zM780.571311 708.699256h17.807494v17.811558h-17.807494zM827.321063 708.699256h17.815621v17.811558h-17.815621zM874.083006 708.699256h17.819685v17.811558H874.083006z"
          fill="#6E6E96" opacity=".37" p-id="5914"></path>
    <path d="M312.980324 756.79412h17.811558v17.815622h-17.811558zM359.742267 756.79412h17.807494v17.815622h-17.807494zM406.500147 756.79412h17.807494v17.815622h-17.807494zM453.253963 756.79412h17.811558v17.815622h-17.811558zM500.015906 756.79412h17.811558v17.815622h-17.811558zM546.773785 756.79412h17.819686v17.815622h-17.819686zM593.535729 756.79412h17.80343v17.815622h-17.80343zM640.293608 756.79412h17.811558v17.815622h-17.811558zM687.051488 756.79412h17.811558v17.815622h-17.811558zM733.813431 756.79412h17.807494v17.815622h-17.807494zM780.571311 756.79412h17.807494v17.815622h-17.807494zM827.321063 756.79412h17.815621v17.815622h-17.815621zM874.083006 756.79412h17.819685v17.815622H874.083006z"
          fill="#6E6E96" opacity=".37" p-id="5915"></path>
    <path d="M312.980324 804.893048h17.811558v17.815622h-17.811558zM359.742267 804.893048h17.807494v17.815622h-17.807494zM406.500147 804.893048h17.807494v17.815622h-17.807494zM453.253963 804.893048h17.811558v17.815622h-17.811558zM500.015906 804.893048h17.811558v17.815622h-17.811558zM546.773785 804.893048h17.819686v17.815622h-17.819686zM593.535729 804.893048h17.80343v17.815622h-17.80343zM640.293608 804.893048h17.811558v17.815622h-17.811558zM687.051488 804.893048h17.811558v17.815622h-17.811558zM733.813431 804.893048h17.807494v17.815622h-17.807494zM780.571311 804.893048h17.807494v17.815622h-17.807494zM827.321063 804.893048h17.815621v17.815622h-17.815621zM874.083006 804.893048h17.819685v17.815622H874.083006z"
          fill="#6E6E96" opacity=".37" p-id="5916"></path>
    <path d="M312.980324 852.991976h17.811558v17.807494h-17.811558zM359.742267 852.991976h17.807494v17.807494h-17.807494zM406.500147 852.991976h17.807494v17.807494h-17.807494zM453.253963 852.991976h17.811558v17.807494h-17.811558zM500.015906 852.991976h17.811558v17.807494h-17.811558zM546.773785 852.991976h17.819686v17.807494h-17.819686zM593.535729 852.991976h17.80343v17.807494h-17.80343zM640.293608 852.991976h17.811558v17.807494h-17.811558zM687.051488 852.991976h17.811558v17.807494h-17.811558zM733.813431 852.991976h17.807494v17.807494h-17.807494zM780.571311 852.991976h17.807494v17.807494h-17.807494zM827.321063 852.991976h17.815621v17.807494h-17.815621zM874.083006 852.991976h17.819685v17.807494H874.083006z"
          fill="#6E6E96" opacity=".37" p-id="5917"></path>
    <path d="M772.553468 530.571485l-55.141462-172.125564c-8.89562-27.792207-38.597805-50.541261-65.963315-50.541261h-106.174441c-27.377702 0-56.133025 23.057901-63.902977 51.240231l-47.265853 171.426594"
          fill="#CCCCDE" p-id="5918"></path>
    <path d="M772.553468 546.826615H434.10542a16.251066 16.251066 0 0 1-15.669944-20.57493l47.265852-171.422531c7.473296-27.121683 23.854402-63.17556 79.572922-63.17556h106.174441c55.259312 0 72.944893 35.29395 81.446325 61.838576l55.141463 172.121501a16.247002 16.247002 0 0 1-15.483011 21.212944z m-317.105063-32.510259h294.831472l-48.346818-150.912621c-7.753697-24.22827-18.904715-39.243946-50.484368-39.243946h-106.174441c-31.278933 0-41.369304 14.410172-48.228969 39.304903l-41.596876 150.851664z"
          fill="#6E6E96" p-id="5919"></path>
    <path d="M439.44523 531.90847l14.243557-61.375305-16.917526 61.375305h2.673969z m280.632617-172.125565c-8.89562-27.792207-38.589677-50.541261-65.955187-50.541261h-31.644673c23.041646 0 48.042035 22.736862 55.543776 50.541261l46.432777 172.125565h50.772897l-55.14959-172.125565z"
          fill="#6E6E96" opacity=".2" p-id="5920"></path>
    <path d="M598.245652 695.918661m-240.035431 0a240.035431 240.035431 0 1 0 480.070863 0 240.035431 240.035431 0 1 0-480.070863 0Z"
          fill="#DADAED" p-id="5921"></path>
    <path d="M598.245652 952.209221c-141.318031 0-256.286497-114.97253-256.286496-256.29056s114.97253-256.286497 256.286496-256.286497c141.318031 0 256.29056 114.968466 256.290561 256.286497s-114.97253 256.29056-256.290561 256.29056z m0-480.070862c-123.392687 0-223.776238 100.387615-223.776238 223.776238 0 123.392687 100.387615 223.780302 223.776238 223.780302 123.392687 0 223.780302-100.387615 223.780302-223.780302 0-123.388623-100.387615-223.776238-223.780302-223.776238z"
          fill="#6E6E96" p-id="5922"></path>
    <path d="M599.021835 694.931162m-144.682843 0a144.682842 144.682842 0 1 0 289.365685 0 144.682842 144.682842 0 1 0-289.365685 0Z"
          fill="#C5A6E6" p-id="5923"></path>
    <path d="M599.021835 855.869134c-88.740815 0-160.937972-72.197157-160.937972-160.942036 0-88.740815 72.197157-160.937972 160.937972-160.937972 88.744879 0 160.942036 72.197157 160.942035 160.937972 0 88.748942-72.197157 160.942036-160.942035 160.942036z m0-289.365685c-70.815471 0-128.427713 57.612242-128.427713 128.427713s57.612242 128.431777 128.427713 128.431777 128.431777-57.616306 128.431777-128.431777-57.616306-128.427713-128.431777-128.427713z"
          fill="#6E6E96" p-id="5924"></path>
    <path d="M597.213452 695.296902m-86.290354 0a86.290354 86.290354 0 1 0 172.580708 0 86.290354 86.290354 0 1 0-172.580708 0Z"
          fill="#F0F0FF" opacity=".41" p-id="5925"></path>
    <path d="M588.622616 671.548158a13.857498 13.857498 0 0 1 0 27.723123 13.857498 13.857498 0 1 1 0-27.723123z"
          fill="#F0F0FF" p-id="5926"></path>
    <path d="M250.637839 530.571485h35.631244v359.815416h-35.631244z" fill="#6E6E96" opacity=".2" p-id="5927"></path>
    <path d="M206.326357 538.36582h79.934598v352.021081h-79.934598z" fill="#6E6E96" opacity=".38" p-id="5928"></path>
    <path d="M890.114627 553.726917v400.762086a52.743831 52.743831 0 0 1-23.151368 5.37232H134.852553c-29.389274 0-53.434674-24.0454-53.434674-53.438737v32.07137c0 29.38521 24.0454 53.434674 53.434674 53.434674h732.110706c21.757491 0 40.556548-13.195101 48.879174-31.949457h4.559564v-406.252256h-30.28737z"
          fill="#6E6E96" opacity=".2" p-id="5929"></path>
    <path d="M566.040177 612.814312c9.976586 10.533324-4.527054 21.338921-20.27421 36.269257-15.739029 14.926273-26.76407 28.320499-36.744719 17.795303-9.988777-10.537388-5.315427-31.165147 10.423601-46.095483 15.743093-14.926273 36.602487-18.494273 46.595328-7.969077z"
          fill="#F0F0FF" p-id="5930"></path>
    <path d="M752.966037 264.714781c0 22.350803-18.287021 40.637823-40.637823 40.637824H478.189331c-22.350803 0-40.637823-18.287021-40.637823-40.637824v-32.985721c0-22.350803 18.287021-40.637823 40.637823-40.637823h234.138883c22.350803 0 40.637823 18.287021 40.637823 40.637823v32.985721z"
          fill="#B2B2C2" p-id="5931"></path>
    <path d="M712.328214 321.607734H478.189331c-31.3724 0-56.892953-25.520553-56.892953-56.892953v-32.985721c0-31.3724 25.520553-56.892953 56.892953-56.892953h234.138883c31.3724 0 56.892953 25.520553 56.892953 56.892953v32.985721c0 31.3724-25.520553 56.892953-56.892953 56.892953zM478.189331 207.346366c-13.447056 0-24.382694 10.935638-24.382694 24.382694v32.985721c0 13.447056 10.935638 24.382694 24.382694 24.382694h234.138883c13.447056 0 24.382694-10.935638 24.382694-24.382694v-32.985721c0-13.447056-10.935638-24.382694-24.382694-24.382694H478.189331z"
          fill="#6E6E96" p-id="5932"></path>
    <path d="M814.739593 198.881507c0 21.103222-17.283266 38.374297-38.382425 38.374297h-367.731663c-21.107285 0-38.37836-17.271075-38.37836-38.374297V75.919582c0-21.107285 17.271075-38.37836 38.37836-38.378361h367.731663c21.107285 0 38.382424 17.275139 38.382425 38.378361V198.881507z"
          fill="#DADAED" p-id="5933"></path>
    <path d="M710.922145 153.58659h-237.962902a16.255129 16.255129 0 0 1 0-32.510259h237.962902a16.255129 16.255129 0 0 1 0 32.510259z"
          fill="#6E6E96" p-id="5934"></path>
    <path d="M777.360923 38.544975h-367.731664c-21.103222 0-38.37836 17.271075-38.37836 38.374297v42.503099c0-21.103222 17.275139-38.374297 38.37836-38.374296h367.731664c21.107285 0 38.382424 17.275139 38.382424 38.374296V76.919272c0-21.095094-17.275139-38.374297-38.382424-38.374297z"
          fill="#6E6E96" opacity=".15" p-id="5935"></path>
    <path d="M776.357168 253.514997h-367.731663c-30.124818 0-54.63349-24.508671-54.63349-54.629426V75.919582c0-30.124818 24.508671-54.63349 54.63349-54.63349h367.731663c30.128882 0 54.637553 24.508671 54.637554 54.63349V198.881507c0 30.124818-24.508671 54.63349-54.637554 54.63349z m-367.731663-199.718646a22.147614 22.147614 0 0 0-22.123231 22.123231V198.881507a22.147614 22.147614 0 0 0 22.123231 22.119168h367.731663a22.147614 22.147614 0 0 0 22.127295-22.119168V75.919582a22.147614 22.147614 0 0 0-22.127295-22.123231h-367.731663z"
          fill="#6E6E96" p-id="5936"></path>
</svg>