<svg t="1735017982318" class="icon" viewBox="0 0 1024 1024" version="1.1" xmlns="http://www.w3.org/2000/svg"
     p-id="28034" width="200" height="200">
    <path d="M803.84 430.08H199.68c-25.6 0-51.2-25.6-51.2-51.2V51.2c0-30.72 25.6-51.2 51.2-51.2h599.04c30.72 0 51.2 20.48 51.2 51.2v327.68c5.12 30.72-20.48 51.2-46.08 51.2z"
          fill="#90C3E9" p-id="28035"></path>
    <path d="M199.68 56.32h599.04v312.32H199.68z" fill="#FFFFFF" p-id="28036"></path>
    <path d="M256 578.56m-66.56 0a66.56 66.56 0 1 0 133.12 0 66.56 66.56 0 1 0-133.12 0Z" fill="#F6B24F"
          p-id="28037"></path>
    <path d="M256 660.48c-56.32 0-102.4 46.08-102.4 102.4h204.8c5.12-56.32-40.96-102.4-102.4-102.4z" fill="#455963"
          p-id="28038"></path>
    <path d="M179.2 808.96m-81.92 0a81.92 81.92 0 1 0 163.84 0 81.92 81.92 0 1 0-163.84 0Z" fill="#F6B24F"
          p-id="28039"></path>
    <path d="M179.2 906.24c-66.56 0-117.76 51.2-117.76 117.76h235.52c0-66.56-56.32-117.76-117.76-117.76z" fill="#5E7A88"
          p-id="28040"></path>
    <path d="M762.88 578.56m-66.56 0a66.56 66.56 0 1 0 133.12 0 66.56 66.56 0 1 0-133.12 0Z" fill="#F6B24F"
          p-id="28041"></path>
    <path d="M762.88 660.48c-56.32 0-102.4 46.08-102.4 102.4h204.8c0-56.32-46.08-102.4-102.4-102.4z" fill="#455963"
          p-id="28042"></path>
    <path d="M844.8 808.96m-81.92 0a81.92 81.92 0 1 0 163.84 0 81.92 81.92 0 1 0-163.84 0Z" fill="#F6B24F"
          p-id="28043"></path>
    <path d="M844.8 906.24c-66.56 0-117.76 51.2-117.76 117.76h235.52c0-66.56-51.2-117.76-117.76-117.76z" fill="#5E7A88"
          p-id="28044"></path>
    <path d="M363.52 481.28h291.84l102.4 542.72h-512z" fill="#768E99" p-id="28045"></path>
</svg>