<svg t="1735018030101" class="icon" viewBox="0 0 1024 1024" version="1.1" xmlns="http://www.w3.org/2000/svg"
     p-id="30978" width="200" height="200">
    <path d="M821.946361 126.811146h-72.789598v50.724458a50.724458 50.724458 0 0 1-50.724458 50.724458 50.724458 50.724458 0 0 1-50.724458-50.724458v-50.724458h-253.622291v50.724458a50.724458 50.724458 0 0 1-50.724458 50.724458 50.724458 50.724458 0 0 1-50.724458-50.724458v-50.724458h-79.383777a101.448916 101.448916 0 0 0-101.448917 101.448916v557.96904a101.448916 101.448916 0 0 0 101.448917 101.448917h428.748482a202.897833 202.897833 0 1 1 281.393932-286.593189V228.260062a101.448916 101.448916 0 0 0-101.448916-101.448916z"
          fill="#A785F4" p-id="30979"></path>
    <path d="M305.317754 50.724458m38.043344 0l0 0q38.043344 0 38.043343 38.043344l0 76.086687q0 38.043344-38.043343 38.043344l0 0q-38.043344 0-38.043344-38.043344l0-76.086687q0-38.043344 38.043344-38.043344Z"
          fill="#CAB5F8" p-id="30980"></path>
    <path d="M660.388962 50.724458m38.043343 0l0 0q38.043344 0 38.043344 38.043344l0 76.086687q0 38.043344-38.043344 38.043344l0 0q-38.043344 0-38.043343-38.043344l0-76.086687q0-38.043344 38.043343-38.043344Z"
          fill="#CAB5F8" p-id="30981"></path>
    <path d="M762.345123 722.823529m-164.85449 0a164.854489 164.854489 0 1 0 329.708979 0 164.854489 164.854489 0 1 0-329.708979 0Z"
          fill="#A785F4" p-id="30982"></path>
    <path d="M645.737637 726.287075m13.450354-13.450353l0 0q13.450353-13.450353 26.900706 0l62.768314 62.768314q13.450353 13.450353 0 26.900707l0 0q-13.450353 13.450353-26.900706 0l-62.768314-62.768315q-13.450353-13.450353 0-26.900706Z"
          fill="#FFFFFF" p-id="30983"></path>
    <path d="M852.038294 645.54636m13.450353 13.450353l0 0q13.450353 13.450353 0 26.900706l-116.569727 116.569727q-13.450353 13.450353-26.900706 0l0 0q-13.450353-13.450353 0-26.900706l116.569727-116.569727q13.450353-13.450353 26.900706 0Z"
          fill="#FFFFFF" p-id="30984"></path>
    <path d="M215.408652 828.203591m-195.796409 0a195.796409 195.796409 0 1 0 391.592818 0 195.796409 195.796409 0 1 0-391.592818 0Z"
          fill="#B598FA" p-id="30985"></path>
    <path d="M199.937692 278.98452h659.417957v126.811146h-659.417957z" fill="#FFFFFF" p-id="30986"></path>
</svg>