<svg t="1735017785989" class="icon" viewBox="0 0 1024 1024" version="1.1" xmlns="http://www.w3.org/2000/svg"
     p-id="24363" width="200" height="200">
    <path d="M96.725333 739.541333c-2.645333-1.962667-61.824-29.610667-61.824-29.610666-26.325333 8.618667-32.213333 67.285333-34.901333 101.845333h62.933333l33.792-72.234667zM201.557333 739.541333c2.645333-1.962667 61.824-29.610667 61.824-29.610666 26.325333 8.618667 32.213333 67.285333 34.901334 101.845333H235.349333l-33.792-72.234667z"
          fill="#443D47" p-id="24364"></path>
    <path d="M149.162667 645.632h-27.776v17.365333c0 10.837333-1.792 8.576-11.946667 14.208 0 0-9.813333 7.978667-12.842667 8.96 12.373333 39.381333 21.248 90.026667 45.397334 125.610667h14.293333c24.149333-35.541333 33.066667-86.229333 45.397333-125.653333-2.986667-0.938667-12.8-8.96-12.8-8.96-10.197333-5.546667-11.989333-3.328-11.946666-14.165334v-17.365333h-27.776z"
          fill="#F5B67E" p-id="24365"></path>
    <path d="M149.162667 740.352c-45.866667-3.584-39.253333-62.72-39.765334-63.018667-14.805333 6.698667-68.778667 27.690667-74.837333 32.853334 4.906667 10.666667 12.373333 54.485333 18.773333 101.589333h191.616c6.4-47.104 13.866667-90.922667 18.773334-101.546667-6.058667-5.205333-60.032-26.197333-74.837334-32.853333-0.512 0.256 6.101333 59.392-39.722666 62.976"
          fill="#4D4351" p-id="24366"></path>
    <path d="M223.445333 522.965333c-3.968 22.4 9.386667 41.045333 29.909334 45.056a36.821333 36.821333 0 0 0 44.288-30.506666c3.968-22.4-9.386667-43.861333-29.866667-47.872-20.522667-4.010667-40.362667 10.88-44.373333 33.28M80.426667 522.965333c3.968 22.4-9.429333 41.045333-29.952 45.056a36.821333 36.821333 0 0 1-44.288-30.506666c-3.968-22.4 9.386667-43.861333 29.909333-47.872 20.48-4.010667 40.32 10.88 44.330667 33.28"
          fill="#F6C085" p-id="24367"></path>
    <path d="M254.208 389.546667c-20.010667-27.008-51.2-44.714667-84.352-46.037334l-1.706667-0.085333v-1.28l-16.298666 0.64-16.341334-0.64v1.28l-1.706666 0.085333c-33.109333 1.28-64.298667 19.029333-84.352 45.994667-20.053333 27.008-22.656 61.013333-21.077334 93.568 1.194667 24.618667 5.546667 64.341333 6.826667 88.96 31.829333 118.229333 203.605333 120.192 233.301333 0 1.28-24.618667 5.632-64.341333 6.826667-88.96 1.578667-32.554667-1.066667-66.56-21.12-93.568"
          fill="#F8C997" p-id="24368"></path>
    <path d="M50.389333 434.816c-1.578667 3.413333 7.552-30.72 27.477334-31.317333 20.906667-0.597333 150.741333 7.253333 157.44-1.408 21.973333 27.648 38.016 137.216 39.253333 136.96 2.986667-0.554667 3.285333-11.306667 3.584-13.610667 2.133333-16.128 2.688-32.725333 2.645333-48.981333 0-30.037333 8.789333-87.893333-45.994666-123.904-33.706667-22.186667-103.296-24.362667-142.08-11.818667-27.008 8.746667-52.906667 31.488-62.506667 58.026667-10.581333 29.141333-10.325333 51.925333-6.826667 109.610666 0.384 6.229333 1.109333 12.501333 2.005334 18.730667 0.554667 4.096 1.109333 8.32 2.133333 12.373333 5.461333 21.973333 5.973333-78.677333 22.869333-104.661333"
          fill="#A95C40" p-id="24369"></path>
    <path d="M255.445333 379.392c-4.224 42.112-59.264 74.666667-100.096 74.666667l11.946667-11.093334c-45.994667 13.824-71.594667 4.394667-71.552 4.394667 1.706667 0.341333 19.029333-7.68 19.029333-7.68-26.112 0.768-52.48 1.109333-72.704-17.664l29.184-51.498667 184.192 8.874667z"
          fill="#A95C40" p-id="24370"></path>
    <path d="M89.130667 541.354667c5.290667 0 9.6-4.266667 9.6-9.557334a9.557333 9.557333 0 0 0-19.2 0c0 5.248 4.266667 9.557333 9.6 9.557334M214.570667 541.354667c5.290667 0 9.6-4.266667 9.6-9.557334a9.557333 9.557333 0 0 0-19.2 0c0 5.248 4.309333 9.557333 9.6 9.557334"
          fill="#3E3B3A" p-id="24371"></path>
    <path d="M56.106667 505.130667c-3.541333-5.034667 12.842667-8.789333 29.696-9.984 28.202667-2.005333 44.373333 10.496 30.762666 10.965333-10.154667 0.384-59.434667 0.469333-60.458666-0.981333M242.005333 505.856c3.669333-4.864-12.544-9.301333-29.312-11.093333-28.117333-3.114667-44.757333 8.789333-31.146666 9.770666 10.112 0.725333 59.349333 2.730667 60.458666 1.28"
          fill="#A95C40" p-id="24372"></path>
    <path d="M183.594667 599.296c-5.845333 32.725333-59.008 32.725333-64.853334 0 15.829333 3.626667 45.482667 3.669333 64.853334 0"
          fill="#D6825B" p-id="24373"></path>
    <path d="M130.474667 580.053333c-0.085333 0-0.128-0.128 0-0.256 0-0.512 0.256-0.938667 0.768-1.408 3.925333-7.509333 11.690667-29.482667 15.274666-53.674666 3.84 0.256-3.882667 41.130667-7.253333 50.901333 3.413333-0.597333 7.509333-0.938667 11.946667-0.938667 11.52 0 20.778667 2.304 20.778666 5.12 0 2.773333-9.301333 5.077333-20.778666 5.077334-11.093333 0-20.096-2.133333-20.736-4.821334"
          fill="#E5B17D" p-id="24374"></path>
    <path d="M720.512 534.442667c0 59.221333 42.026667 107.178667 16.725333 171.818666-39.466667 100.693333-128.341333 78.677333-194.176 78.677334h-86.229333c-67.669333 0-147.584 8.021333-176.170667-89.045334-19.712-66.901333 15.36-102.229333 15.36-155.605333l-3.029333-150.954667c5.205333-200.106667 77.781333-231.338667 215.637333-231.338666 162.218667-21.589333 206.08 62.848 215.68 231.338666l-3.797333 145.066667z"
          fill="#402412" p-id="24375"></path>
    <path d="M588.714667 780.330667L682.837333 709.888c41.258667 13.482667 53.162667 129.536 57.344 183.68h-98.56L588.757333 780.330667z"
          fill="#9B5538" p-id="24376"></path>
    <path d="M504.277333 633.301333h-43.52v27.221334c0.042667 16.938667-2.773333 13.397333-18.730666 22.186666 0 0-15.36 12.544-20.053334 13.994667 19.328 61.738667 33.28 141.098667 71.082667 196.778667h22.442667c37.76-55.68 51.712-135.04 71.04-196.778667-4.693333-1.450667-20.053333-13.994667-20.053334-13.994667-15.914667-8.789333-18.773333-5.248-18.730666-22.186666v-27.221334h-43.52z"
          fill="#F5B67E" p-id="24377"></path>
    <path d="M422.144 780.330667L328.021333 709.888C286.762667 723.328 274.858667 839.381333 270.677333 893.525333h98.56l52.906667-113.152z"
          fill="#9B5538" p-id="24378"></path>
    <path d="M477.312 743.552c-38.272-13.909333-43.093333-54.613333-35.285333-60.586667-17.066667 7.68-67.712 15.36-97.066667 22.101334l-0.512 0.085333-0.469333 0.128-0.512 0.128-0.426667 0.085333-0.512 0.128-0.469333 0.128-0.938667 0.213334-0.426667 0.128-0.469333 0.085333-0.426667 0.128h-0.042666l-0.426667 0.085333-0.426667 0.128-0.426666 0.128-0.426667 0.085334-0.426667 0.128-0.426666 0.085333-1.152 0.341333h-0.085334l-0.426666 0.128-0.384 0.085334-0.384 0.128-0.426667 0.085333-0.341333 0.128-0.384 0.085333-0.298667 0.128h-0.042667l-0.384 0.128-0.341333 0.085334-0.341333 0.128-0.341334 0.085333-0.682666 0.213333-0.256 0.085334h-0.085334l-0.938666 0.341333-0.170667 0.085333h-0.128l-0.597333 0.256-0.256 0.085334-0.256 0.128-0.725334 0.256-0.213333 0.085333-0.810667 0.341333-0.042666 0.042667-0.768 0.341333-0.64 0.384h-0.085334v0.042667a7.893333 7.893333 0 0 0-0.597333 0.341333v0.042667a6.314667 6.314667 0 0 0-0.512 0.426667c4.138667 8.96 9.685333 39.808 15.488 77.866666-5.845333 38.869333-28.8 66.773333-12.288 103.68H683.605333c16.512-36.906667-6.4-64.810667-12.288-103.68 5.802667-38.058667 11.306667-68.864 15.488-77.909333l-0.469333-0.384h-0.085333l-0.512-0.384h-0.042667l-0.085333-0.042667-0.597334-0.341333h-0.085333l-0.725333-0.384h-0.042667l-0.810667-0.384-0.213333-0.085333-0.725333-0.256-0.256-0.128-0.256-0.085334-0.597334-0.213333-0.128-0.042667-0.170666-0.085333-0.938667-0.298667-0.085333-0.042666-0.256-0.085334-0.682667-0.213333-0.341333-0.085333-0.341334-0.128-0.341333-0.085334-0.384-0.128h-0.085333l-0.298667-0.128-0.341333-0.085333-0.426667-0.128-0.341333-0.085333-0.426667-0.128-0.341333-0.085334-0.426667-0.128h-0.085333l-1.152-0.341333-0.426667-0.085333-0.426667-0.128-0.426666-0.085334-0.426667-0.128-0.426667-0.128-0.426666-0.085333-0.469334-0.128-0.426666-0.085333-0.469334-0.128-0.938666-0.213334-0.469334-0.128-0.469333-0.128-0.512-0.085333-0.469333-0.128-0.469334-0.128-0.512-0.085333c-29.354667-6.741333-80-14.421333-97.066666-22.101334 7.765333 5.973333 2.986667 46.677333-35.285334 60.586667l-26.965333 44.672-1.194667-1.962667-1.152 1.962667-26.965333-44.629333z"
          fill="#ED8322" p-id="24379"></path>
    <path d="M376.448 420.565333c7.210667 32.170667-7.125333 58.922667-31.658667 64.725334-24.533333 5.76-49.92-11.690667-57.173333-43.818667-7.168-32.170667 6.826667-62.890667 31.36-68.693333 24.533333-5.717333 50.261333 15.658667 57.472 47.786666M641.664 420.565333c-7.253333 32.170667 7.125333 58.922667 31.658667 64.725334 24.533333 5.76 49.92-11.690667 57.173333-43.818667 7.168-32.170667-6.826667-62.890667-31.402667-68.693333-24.490667-5.717333-50.218667 15.658667-57.429333 47.786666"
          fill="#F6C085" p-id="24380"></path>
    <path d="M509.056 159.018667h-0.554667l-25.6-0.981334 0.085334 2.005334-2.688 0.085333c-51.925333 2.048-100.778667 29.781333-132.138667 72.021333-31.36 42.325333-35.541333 95.573333-33.066667 146.602667 6.4 131.029333 80.341333 278.186667 193.962667 279.296 113.578667-1.109333 187.605333-148.266667 193.962667-279.296 2.474667-51.029333-1.706667-104.277333-33.066667-146.602667-31.36-42.24-80.213333-69.973333-132.138667-72.021333l-2.688-0.085333 0.042667-2.005334s-12.586667 0.426667-25.557333 0.981334h-0.554667z"
          fill="#F8C997" p-id="24381"></path>
    <path d="M589.781333 209.792c-1.536 7.168-0.170667 45.781333 44.586667 104.917333a3419.946667 3419.946667 0 0 1 48.213333 64.298667s2.048 99.754667 7.765334 87.936c5.717333-11.818667 13.824-97.706667 13.824-97.706667s10.538667-44.8-0.853334-91.050666c-11.392-46.293333-25.813333-63.744-45.568-71.552-19.797333-7.808-67.968 3.157333-67.968 3.157333M340.48 334.762667c-7.808 8.746667-33.066667 9.685333-33.066667 9.685333 1.109333 8.106667 11.946667 129.877333 22.186667 121.216l10.837333-130.901333z"
          fill="#402412" p-id="24382"></path>
    <path d="M682.581333 379.008c2.005333-33.792 19.498667-110.933333 10.922667-132.010667-24.661333-60.757333-69.930667-85.333333-145.834667-92.842666-23.338667-2.346667-42.794667-0.298667-42.794666-0.298667 43.605333 71.381333 80.384 166.144 177.706666 225.152"
          fill="#402412" p-id="24383"></path>
    <path d="M609.365333 228.138667c-15.402667 95.317333-218.026667 64.597333-284.714666 179.2-74.282667-111.445333 39.466667-339.754667 237.482666-251.52L609.365333 228.138667z"
          fill="#402412" p-id="24384"></path>
    <path d="M419.84 460.885333a15.018667 15.018667 0 0 0 14.976-14.933333 14.976 14.976 0 0 0-15.018667-14.890667 14.976 14.976 0 0 0-15.018666 14.933334c0 8.192 6.741333 14.933333 15.018666 14.933333M607.274667 460.885333a15.018667 15.018667 0 0 0 15.061333-14.933333 15.018667 15.018667 0 1 0-30.08 0c0 8.234667 6.741333 14.933333 15.018667 14.933333"
          fill="#3E3B3A" p-id="24385"></path>
    <path d="M484.778667 522.069333c-0.170667-0.042667-0.213333-0.213333-0.042667-0.426666 0-0.768 0.426667-1.493333 1.194667-2.176 6.186667-11.818667 18.346667-46.208 23.893333-84.053334 6.101333 0.384-6.058667 64.426667-11.264 79.701334a112.64 112.64 0 0 1 18.688-1.450667c17.962667 0 32.512 3.541333 32.512 7.936 0 4.437333-14.506667 7.978667-32.512 7.978667-17.365333 0-31.530667-3.328-32.469333-7.509334"
          fill="#E5B17D" p-id="24386"></path>
    <path d="M553.472 410.026667c-8.917333 3.712 5.888-20.224 49.664-21.205334 51.029333-1.109333 66.56 23.253333 46.464 16.256-43.392-15.061333-82.005333-0.853333-96.128 4.992M464.64 410.026667c8.917333 3.712-5.888-20.224-49.664-21.205334-51.029333-1.109333-66.56 23.253333-46.464 16.256 43.392-15.061333 82.005333-0.853333 96.128 4.992"
          fill="#402412" p-id="24387"></path>
    <path d="M560.128 558.592c-9.216 40.234667-92.416 40.234667-101.632 0a70.698667 70.698667 0 0 0 101.632 0"
          fill="#D6825B" p-id="24388"></path>
    <path d="M815.701333 742.954667c-2.602667-1.962667-61.397333-29.44-61.397333-29.44-26.112 8.576-32 66.858667-34.645333 101.162666h62.464l33.578666-71.722666zM919.808 742.954667c2.645333-1.962667 61.44-29.44 61.44-29.44 26.112 8.576 32 66.858667 34.645333 101.162666h-62.506666l-33.578667-71.722666z"
          fill="#34333C" p-id="24389"></path>
    <path d="M867.754667 649.685333h-27.562667v17.28c0 10.709333-1.792 8.490667-11.904 14.08 0 0-9.728 7.936-12.714667 8.874667 12.245333 39.125333 25.045333 75.904 48.981334 111.232h14.250666c23.936-35.328 28.885333-72.106667 41.130667-111.232-2.986667-0.981333-12.714667-8.874667-12.714667-8.874667-10.069333-5.589333-11.904-3.370667-11.861333-14.08v-17.28h-27.605333z"
          fill="#F5B67E" p-id="24390"></path>
    <path d="M867.754667 743.765333c-45.525333-3.584-38.954667-62.293333-39.466667-62.592-14.72 6.656-68.266667 27.477333-74.325333 32.64 4.906667 10.581333 12.288 54.101333 18.688 100.864h190.293333c6.357333-46.762667 13.738667-90.282667 18.602667-100.864-5.973333-5.12-59.605333-26.026667-74.282667-32.64-0.554667 0.298667 6.058667 59.008-39.509333 62.592"
          fill="#BED53B" p-id="24391"></path>
    <path d="M941.568 527.829333c-3.968 22.272 9.344 40.789333 29.696 44.8a36.565333 36.565333 0 0 0 43.989333-30.293333c3.968-22.314667-9.386667-43.562667-29.696-47.573333-20.352-4.010667-40.064 10.837333-43.989333 33.066666M799.488 527.829333c3.968 22.272-9.344 40.789333-29.696 44.8a36.565333 36.565333 0 0 1-43.989333-30.293333c-3.968-22.314667 9.344-43.562667 29.696-47.573333 20.352-4.010667 40.064 10.837333 43.989333 33.066666"
          fill="#F6C085" p-id="24392"></path>
    <path d="M972.117333 395.306667c-19.882667-26.794667-50.858667-44.373333-83.797333-45.653334l-1.706667-0.085333 0.042667-1.28-16.213333 0.64-16.213334-0.64 0.042667 1.28-1.706667 0.042667c-32.938667 1.28-63.914667 18.901333-83.797333 45.696-19.882667 26.837333-22.528 60.586667-20.949333 92.928 1.194667 24.448 5.546667 63.914667 6.741333 88.362666 31.658667 117.418667 202.24 119.338667 231.765333 0 1.237333-24.448 5.546667-63.914667 6.784-88.32 1.536-32.384-1.109333-66.133333-20.992-92.970666"
          fill="#F8C997" p-id="24393"></path>
    <path d="M769.706667 440.32c-1.578667 3.413333 7.466667-30.506667 27.306666-31.104 20.736-0.597333 149.674667 7.168 156.288-1.408 21.845333 27.434667 37.802667 136.277333 39.04 136.021333 2.944-0.554667 3.242667-11.221333 3.541334-13.525333 2.133333-16.042667 2.645333-32.469333 2.645333-48.64 0-29.866667 8.704-87.253333-45.653333-123.050667-33.493333-22.016-102.656-24.192-141.141334-11.733333-26.837333 8.661333-52.522667 31.274667-62.08 57.6-10.496 28.970667-10.24 51.584-6.784 108.885333 0.384 6.186667 1.109333 12.416 1.962667 18.56 0.597333 4.138667 1.152 8.32 2.133333 12.373334 5.461333 21.76 5.973333-78.165333 22.741334-103.978667"
          fill="#973823" p-id="24394"></path>
    <path d="M808.149333 545.792c5.248 0 9.557333-4.266667 9.557334-9.472a9.514667 9.514667 0 0 0-19.072 0c0 5.205333 4.266667 9.472 9.514666 9.472M932.736 546.432c5.248 0 9.557333-4.266667 9.557333-9.472s-4.266667-9.429333-9.557333-9.429333c-5.248 0-9.514667 4.266667-9.514667 9.429333 0 5.205333 4.266667 9.472 9.514667 9.472"
          fill="#3E3B3A" p-id="24395"></path>
    <path d="M775.338667 510.122667c-3.456-4.992 12.8-8.746667 29.525333-9.898667 28.032-1.962667 44.074667 10.453333 30.549333 10.922667-10.069333 0.341333-59.050667 0.426667-60.074666-1.024M960 510.378667c3.669333-4.821333-12.458667-9.216-29.098667-11.008-27.946667-3.072-44.458667 8.704-30.976 9.728 10.069333 0.725333 58.965333 2.730667 60.074667 1.28"
          fill="#973823" p-id="24396"></path>
    <path d="M901.973333 603.690667c-5.802667 32.469333-58.581333 32.469333-64.426666 0 15.786667 3.584 45.226667 3.584 64.426666 0"
          fill="#D6825B" p-id="24397"></path>
    <path d="M849.237333 584.533333c-0.085333 0-0.128-0.085333 0-0.256 0-0.469333 0.256-0.938667 0.768-1.365333 3.882667-7.509333 11.605333-29.312 15.146667-53.333333 3.84 0.256-3.84 40.874667-7.168 50.56a71.68 71.68 0 0 1 11.861333-0.896c11.392 0 20.608 2.261333 20.608 5.034666s-9.216 5.077333-20.608 5.077334c-11.008 0-20.010667-2.133333-20.608-4.778667"
          fill="#E5B17D" p-id="24398"></path>
    <path d="M768.554667 423.338667c-2.176-12.8-12.928-13.568-11.008-28.586667 1.962667-15.018667 24.661333-44.330667 37.12-56.192 12.458667-11.861333 27.093333-15.744 27.093333-15.744s-8.277333 13.354667-4.864 9.941333c3.413333-3.413333 20.48-11.392 27.818667-16 7.338667-4.608 10.752-9.429333 9.813333-7.04-1.024 2.432-5.632 11.136-2.218667 8.96 3.413333-2.133333 12.416-2.389333 23.168-13.056 10.752-10.666667 17.578667-24.746667 16.64-22.314666-1.024 2.432 15.36 21.589333 20.736 31.274666 5.376 9.685333 6.101333 15.488 7.296 12.8 1.237333-2.645333 6.101333-12.544 6.101334-12.544s20.053333 17.408 27.861333 28.074667c7.808 10.666667 9.514667 18.176 10.496 15.530667 0.981333-2.688 2.901333-9.216 2.901333-9.216s10.538667 25.898667 7.594667 38.997333c-2.944 13.056-9.088 29.269333-9.088 29.269333s-71.466667 18.218667-96.853333 18.432c-12.032 0.128-89.088-20.906667-90.581334-26.88l-10.026666 14.293334z"
          fill="#973823" p-id="24399"></path>
    <path d="M867.754667 743.765333c-45.525333-3.584-38.954667-62.293333-39.466667-62.592l-0.384 0.170667c-2.901333 1.28-7.168 3.114667-12.288 5.248v3.328c0 20.906667 7.04 39.594667 18.048 52.138667 8.96 10.154667 20.48 16.213333 33.109333 16.213333 17.664 0 33.237333-11.946667 42.410667-30.122667a83.626667 83.626667 0 0 0 8.789333-38.4v-0.853333l-0.085333-3.157333a478.549333 478.549333 0 0 1-10.24-4.394667l-0.426667-0.170667c-0.469333 0.298667 6.101333 59.008-39.466666 62.592"
          fill="#D99E67" p-id="24400"></path>
    <path d="M867.754667 743.765333c-45.525333-3.584-38.954667-62.293333-39.466667-62.592l-0.384 0.170667c-2.901333 1.28-7.168 3.114667-12.288 5.248v3.328c0 20.906667 7.04 39.594667 18.048 52.138667 8.96 10.154667 20.48 16.213333 33.109333 16.213333 17.664 0 33.237333-11.946667 42.410667-30.122667a83.626667 83.626667 0 0 0 8.789333-38.4v-0.853333l-0.085333-3.157333a478.549333 478.549333 0 0 1-10.24-4.394667l-0.426667-0.170667c-0.469333 0.298667 6.101333 59.008-39.466666 62.592"
          fill="#34333C" p-id="24401"></path>
</svg>