<svg t="1735017727531" class="icon" viewBox="0 0 1024 1024" version="1.1" xmlns="http://www.w3.org/2000/svg"
     p-id="21441" width="200" height="200">
    <path d="M412.8 72.32c68.8-12.373333 144-21.013333 209.6 8.853333 14.613333 21.866667 8.426667 49.386667 12.16 73.92 15.253333 7.786667 31.36 13.653333 46.506667 21.44 3.2 1.706667 9.706667 5.12 12.906666 6.826667l-1.28 4.693333c-8.106667 24 34.026667 38.933333 19.306667 64.32-5.226667 13.653333-18.453333 8.64-29.226667 7.573334 2.453333-6.613333 7.36-19.733333 9.813334-26.24-19.733333-19.093333-53.44 20.373333-32.96 37.013333-38.826667 20.053333-83.946667 17.6-126.4 20.053333-74.133333 0.64-149.546667 3.2-222.186667-13.973333-23.04-4.16-43.306667-27.946667-36.266667-51.84 13.226667-16.32 29.44-29.866667 43.52-45.333333l5.973334-3.093334c62.4-0.426667 35.626667-87.786667 88.533333-104.213333m155.52 24.533333c11.093333 26.773333 17.066667 54.933333 20.373333 83.626667 31.893333-16.64 16.533333-83.946667-20.373333-83.626667z"
          fill="#359F69" p-id="21442"></path>
    <path d="M568.32 96.853333c36.906667-0.32 52.266667 66.986667 20.373333 83.626667-3.306667-28.693333-9.28-56.853333-20.373333-83.626667z"
          fill="#FFFFF8" p-id="21443"></path>
    <path d="M185.813333 133.546667c49.066667-24.106667 101.44 12.373333 138.453334 42.986666l-5.973334 3.093334c-40.64 6.613333-72.533333 42.453333-56.426666 84.373333-112.746667 75.52-155.413333 228.16-136.213334 357.653333 27.84 179.626667 193.6 322.88 375.36 324.48 185.173333 8.853333 364.053333-129.92 396.266667-313.6 31.253333-150.08-37.226667-308.053333-158.293333-399.146666a230.24 230.24 0 0 0-46.293334-45.333334l1.28-4.693333c45.44-14.08 85.546667-52.48 136.106667-42.773333 34.986667 6.186667 46.72 46.4 50.026667 76.906666 8.213333 44.906667-4.373333 89.493333-4.693334 134.293334 93.973333 163.306667 57.92 389.76-85.546666 513.28-146.666667 136.426667-393.28 139.84-544.64 9.066666C101.546667 757.12 53.76 538.88 139.093333 373.653333c23.253333-32.426667-0.853333-70.933333 3.626667-106.773333 2.026667-45.973333 0.533333-104.213333 43.093333-133.333333m651.946667 73.386666c-27.52 34.666667-27.306667 84.693333 17.706667 103.893334 3.306667-35.306667-0.426667-71.04-6.826667-105.813334-2.773333 0.533333-8.106667 1.493333-10.88 1.92m-663.146667 7.466667a781.226667 781.226667 0 0 0-0.32 82.133333c50.133333-0.853333 36.373333-72.96 0.32-82.133333z"
          fill="#F0AD54" p-id="21444"></path>
    <path d="M681.066667 176.533333c47.786667-29.12 101.653333-65.706667 160.533333-51.093333 48.853333 16.426667 55.893333 76.266667 58.88 120.32-0.746667 35.093333 5.973333 82.026667-25.066667 106.026667 0.32-44.8 12.906667-89.386667 4.693334-134.293334-3.306667-30.506667-15.04-70.72-50.026667-76.906666-50.56-9.706667-90.666667 28.693333-136.106667 42.773333-3.2-1.706667-9.706667-5.12-12.906666-6.826667z"
          fill="#E59308" p-id="21445"></path>
    <path d="M261.866667 264c-16.106667-41.92 15.786667-77.76 56.426666-84.373333-14.08 15.466667-30.293333 29.013333-43.52 45.333333-7.04 23.893333 13.226667 47.68 36.266667 51.84 72.64 17.173333 148.053333 14.613333 222.186667 13.973333 42.453333-2.453333 87.573333 0 126.4-20.053333 5.76-2.773333 17.386667-8.106667 23.146666-10.773333 10.773333 1.066667 24 6.08 29.226667-7.573334 14.72-25.386667-27.413333-40.32-19.306667-64.32 17.6 12.906667 33.066667 28.16 46.293334 45.333334-9.173333 22.506667-20.266667 48.746667-47.04 53.973333-109.013333 30.08-223.466667 16.96-335.04 18.24-34.346667-6.613333-68.266667-18.346667-95.04-41.6z"
          fill="#376C55" p-id="21446"></path>
    <path d="M837.76 206.933333c2.773333-0.426667 8.106667-1.386667 10.88-1.92 6.4 34.773333 10.133333 70.506667 6.826667 105.813334-45.013333-19.2-45.226667-69.226667-17.706667-103.893334zM174.613333 214.4c36.053333 9.173333 49.813333 81.28-0.32 82.133333-1.386667-27.413333-1.173333-54.826667 0.32-82.133333z"
          fill="#FDEC78" p-id="21447"></path>
    <path d="M659.626667 270.72c-20.48-16.64 13.226667-56.106667 32.96-37.013333-2.453333 6.506667-7.36 19.626667-9.813334 26.24-5.76 2.666667-17.386667 8-23.146666 10.773333z"
          fill="#FFFFF8" p-id="21448"></path>
    <path d="M738.986667 233.386667c121.066667 91.093333 189.546667 249.066667 158.293333 399.146666-0.32-24.64-0.853333-49.28-3.52-73.813333-55.36 18.133333-117.44 10.24-163.946667-26.026667 32.533333-20.693333 77.44-47.786667 68.16-93.44-15.466667-52.48-75.413333-66.026667-122.24-76.16-29.866667-19.2-66.986667-41.173333-102.933333-24-47.786667 18.133333-55.466667 86.506667-21.866667 121.28 25.066667 63.786667 96.533333 77.12 157.546667 73.493334-42.88 10.986667-84.586667 50.453333-130.453333 29.12-38.613333-11.733333-62.933333-57.706667-108.16-48.426667-44.16-4.586667-68.053333 35.84-100.266667 57.066667-33.813333-2.666667-68.48-13.653333-94.08-36.8 58.133333 2.133333 121.813333-21.546667 137.28-83.626667 36.053333-23.04 24.106667-77.76-4.16-102.506667-19.52-21.76-50.773333-16.32-76.8-17.92 8.426667-8.32 16.853333-16.746667 25.066667-25.173333 111.573333-1.28 226.026667 11.84 335.04-18.24 26.773333-5.226667 37.866667-31.466667 47.04-53.973333z"
          fill="#FDEC78" p-id="21449"></path>
    <path d="M125.653333 621.653333c-19.2-129.493333 23.466667-282.133333 136.213334-357.653333 26.773333 23.253333 60.693333 34.986667 95.04 41.6-8.213333 8.426667-16.64 16.853333-25.066667 25.173333-19.84 11.733333-38.293333 25.386667-57.493333 38.08-35.52 14.293333-70.933333 38.826667-78.293334 79.04 2.56 43.413333 42.88 66.666667 75.626667 87.146667-46.72 11.733333-94.506667-4.053333-141.653333 2.24-3.946667 27.946667-4.48 56.213333-4.373334 84.373333z"
          fill="#FFCD73" p-id="21450"></path>
    <path d="M331.84 330.773333c26.026667 1.6 57.28-3.84 76.8 17.92 28.266667 24.746667 40.213333 79.466667 4.16 102.506667-11.306667-64.533333-79.36-91.84-138.453333-82.346667 19.2-12.693333 37.653333-26.346667 57.493333-38.08zM572.8 339.093333c35.946667-17.173333 73.066667 4.8 102.933333 24-53.546667 10.666667-116.586667 35.2-124.8 97.28-33.6-34.773333-25.92-103.146667 21.866667-121.28z"
          fill="#FFFFF8" p-id="21451"></path>
    <path d="M550.933333 460.373333c8.213333-62.08 71.253333-86.613333 124.8-97.28 46.826667 10.133333 106.773333 23.68 122.24 76.16 9.28 45.653333-35.626667 72.746667-68.16 93.44-5.333333 0.32-16 0.853333-21.333333 1.173334-61.013333 3.626667-132.48-9.706667-157.546667-73.493334m91.626667-74.026666c-37.333333 7.04-87.786667 41.92-69.653333 85.44 31.146667 50.346667 100.8 56.746667 153.28 42.88 22.186667-15.146667-25.813333-12.586667-30.4-27.946667-32.426667-37.226667 4.8-90.56 50.133333-87.146667-29.653333-21.12-69.12-21.013333-103.36-13.226666m116.373333 31.36c-20.266667 4.48-15.573333 43.306667 7.466667 37.866666 21.973333-3.413333 14.4-43.946667-7.466667-37.866666zM196.053333 447.893333c7.36-40.213333 42.773333-64.746667 78.293334-79.04 59.093333-9.493333 127.146667 17.813333 138.453333 82.346667-15.466667 62.08-79.146667 85.76-137.28 83.626667l-3.84 0.213333c-32.746667-20.48-73.066667-43.733333-75.626667-87.146667m73.386667-61.12c-30.72 8.96-61.76 36.906667-57.706667 71.573334 15.573333 56.426667 92.48 75.093333 140.053334 48.746666-21.973333-9.6-50.346667-21.653333-50.346667-50.133333-7.253333-35.413333 29.546667-56.213333 60.053333-56.96-20.586667-27.52-62.72-18.88-92.053333-13.226667m104.746667 32.96c-23.786667 3.84-14.4 41.066667 7.04 35.093334 23.146667-2.133333 15.36-42.453333-7.04-35.093334z"
          fill="#1F1F1F" p-id="21452"></path>
    <path d="M269.44 386.773333c29.333333-5.653333 71.466667-14.293333 92.053333 13.226667-30.506667 0.746667-67.306667 21.546667-60.053333 56.96 0 28.48 28.373333 40.533333 50.346667 50.133333-47.573333 26.346667-124.48 7.68-140.053334-48.746666-4.053333-34.666667 26.986667-62.613333 57.706667-71.573334zM642.56 386.346667c34.24-7.786667 73.706667-7.893333 103.36 13.226666-45.333333-3.413333-82.56 49.92-50.133333 87.146667 4.586667 15.36 52.586667 12.8 30.4 27.946667-52.48 13.866667-122.133333 7.466667-153.28-42.88-18.133333-43.52 32.32-78.4 69.653333-85.44z"
          fill="#FFFFF8" p-id="21453"></path>
    <path d="M374.186667 419.733333c22.4-7.36 30.186667 32.96 7.04 35.093334-21.44 5.973333-30.826667-31.253333-7.04-35.093334zM758.933333 417.706667c21.866667-6.08 29.44 34.453333 7.466667 37.866666-23.04 5.44-27.733333-33.386667-7.466667-37.866666z"
          fill="#7B8B70" p-id="21454"></path>
    <path d="M369.6 571.626667c32.213333-21.226667 56.106667-61.653333 100.266667-57.066667 45.226667-9.28 69.546667 36.693333 108.16 48.426667 45.866667 21.333333 87.573333-18.133333 130.453333-29.12 5.333333-0.32 16-0.853333 21.333333-1.173334 46.506667 36.266667 108.586667 44.16 163.946667 26.026667 2.666667 24.533333 3.2 49.173333 3.52 73.813333-32.213333 183.68-211.093333 322.453333-396.266667 313.6-181.76-1.6-347.52-144.853333-375.36-324.48-0.106667-28.16 0.426667-56.426667 4.373334-84.373333 47.146667-6.293333 94.933333 9.493333 141.653333-2.24l3.84-0.213333c25.6 23.146667 60.266667 34.133333 94.08 36.8m-36.373333 37.12c-22.826667 8.106667-12.8 39.36-5.333334 55.786666 11.093333 27.306667 49.493333 30.826667 56.106667 60.586667 3.733333 20.373333 25.28 40 19.093333 60.16-33.066667 7.573333-74.666667 4.053333-95.573333-26.24-9.92-8.32-15.253333-28.053333-31.466667-24-5.12 40.746667 40.426667 68.266667 75.413334 75.946667 34.986667 10.88 68.266667-18.56 102.826666-6.293334 61.973333 20.373333 132.16-0.106667 178.24-44.8 9.706667-9.173333 12.053333-20.16 6.826667-33.066666-26.88 14.186667-45.226667 41.173333-74.666667 51.306666-58.88 25.493333-149.653333 10.133333-161.386666-64 11.946667-33.6 70.933333-58.24 50.56-101.546666-37.546667-15.146667-81.6-11.413333-120.64-3.84z"
          fill="#FFFFAB" p-id="21455"></path>
    <path d="M333.226667 608.746667c39.04-7.573333 83.093333-11.306667 120.64 3.84 20.373333 43.306667-38.613333 67.946667-50.56 101.546666 11.733333 74.133333 102.506667 89.493333 161.386666 64 29.44-10.133333 47.786667-37.12 74.666667-51.306666 5.226667 12.906667 2.88 23.893333-6.826667 33.066666-46.08 44.693333-116.266667 65.173333-178.24 44.8-34.56-12.266667-67.84 17.173333-102.826666 6.293334-34.986667-7.68-80.533333-35.2-75.413334-75.946667 16.213333-4.053333 21.546667 15.68 31.466667 24 20.906667 30.293333 62.506667 33.813333 95.573333 26.24 6.186667-20.16-15.36-39.786667-19.093333-60.16-6.613333-29.76-45.013333-33.28-56.106667-60.586667-7.466667-16.426667-17.493333-47.68 5.333334-55.786666m95.573333 21.973333c-12.586667 43.2 42.453333-11.84 0 0z"
          fill="#7D180F" p-id="21456"></path>
    <path d="M428.8 630.72c42.453333-11.84-12.586667 43.2 0 0z" fill="#FFFFF8" p-id="21457"></path>
</svg>