<svg t="1735018108343" class="icon" viewBox="0 0 1024 1024" version="1.1" xmlns="http://www.w3.org/2000/svg"
     p-id="33255" width="200" height="200">
    <path d="M975.481 963.139H48.52c-8.512 0-15.322-6.81-15.322-15.322s6.81-15.322 15.322-15.322H975.48c8.512 0 15.322 6.81 15.322 15.322s-6.81 15.322-15.322 15.322zM314.095 64.692c-155.345 0-280.898 129.808-280.898 289.41 0 160.026 280.898 577.968 280.898 577.968S594.993 513.702 594.993 354.1c0.425-159.6-125.553-289.41-280.898-289.41z m3.405 452.84c-80.865 0-146.408-67.67-146.408-150.663 0-83.418 65.543-150.663 146.408-150.663s146.407 67.671 146.407 150.663S398.364 517.533 317.5 517.533z"
          fill="#2FA182" p-id="33256"></path>
    <path d="M579.245 952.499c-15.321 0-28.09-12.343-28.09-28.09v-177.05c0-15.322 12.343-28.09 28.09-28.09 15.322 0 28.09 12.342 28.09 28.09v177.05c0 15.747-12.768 28.09-28.09 28.09z m154.92 7.235c-15.322 0-28.09-12.342-28.09-28.09V562.647c0-15.322 12.342-28.09 28.09-28.09 15.321 0 28.09 12.342 28.09 28.09v368.997c0 15.322-12.769 28.09-28.09 28.09z m142.576-8.938c-15.321 0-28.09-12.342-28.09-28.09v-483.91c0-15.321 12.343-28.09 28.09-28.09 15.322 0 28.09 12.343 28.09 28.09v483.91c-0.425 15.748-12.768 28.09-28.09 28.09z"
          fill="#FFAAA6" p-id="33257"></path>
</svg>