<svg t="1736125549755" class="icon" viewBox="0 0 1024 1024" version="1.1" xmlns="http://www.w3.org/2000/svg" p-id="3341"
     width="200" height="200">
    <path d="M0 512c0 282.763636 229.236364 512 512 512s512-229.236364 512-512S794.763636 0 512 0 0 229.236364 0 512z"
          fill="#E3FFF3" p-id="3342"></path>
    <path d="M300.218182 700.509091c4.654545-4.654545 6.981818-10.472727 6.981818-17.454546s-2.327273-11.636364-6.981818-17.454545-10.472727-6.981818-17.454546-6.981818h-48.872727c-13.963636 0-24.436364 10.472727-24.436364 24.436363 0 13.963636 10.472727 24.436364 24.436364 24.436364h48.872727c5.818182 1.163636 11.636364-1.163636 17.454546-6.981818zM235.054545 317.672727h48.872728c13.963636 0 24.436364-10.472727 24.436363-24.436363 0-13.963636-10.472727-24.436364-24.436363-24.436364h-48.872728c-13.963636 0-24.436364 10.472727-24.436363 24.436364 0 13.963636 10.472727 24.436364 24.436363 24.436363zM211.781818 488.727273c0 5.818182 2.327273 11.636364 6.981818 17.454545 3.490909 4.654545 10.472727 6.981818 17.454546 6.981818h47.709091c13.963636 0 24.436364-10.472727 24.436363-24.436363 0-13.963636-10.472727-24.436364-24.436363-24.436364h-47.709091c-5.818182 0-11.636364 2.327273-17.454546 6.981818-4.654545 3.490909-6.981818 10.472727-6.981818 17.454546z"
          fill="#0BA85D" p-id="3343"></path>
    <path d="M788.945455 196.654545l-48.872728-1.163636c0-5.818182-2.327273-11.636364-6.981818-17.454545-2.327273-4.654545-9.309091-6.981818-16.290909-6.981819H283.927273c-5.818182 0-11.636364 2.327273-17.454546 6.981819-3.490909 4.654545-5.818182 10.472727-5.818182 17.454545v47.709091h23.272728c25.6 2.327273 46.545455 23.272727 48.872727 48.872727 0 13.963636-4.654545 25.6-15.127273 34.909091-9.309091 9.309091-22.109091 15.127273-34.909091 13.963637l-22.109091 1.163636v96.581818h22.109091c13.963636 0 26.763636 4.654545 34.909091 15.127273 9.309091 9.309091 15.127273 23.272727 13.963637 36.072727-2.327273 26.763636-23.272727 46.545455-50.036364 47.709091h-20.945455v96.581818h23.272728c26.763636 1.163636 47.709091 24.436364 47.709091 51.2 0 26.763636-22.109091 48.872727-48.872728 50.036364l-22.109091-2.327273v48.872727s26.763636 73.309091 69.818182 73.309091H791.272727c11.636364-1.163636 20.945455-10.472727 22.109091-23.272727V221.090909c-1.163636-11.636364-10.472727-22.109091-24.436363-24.436364zM379.345455 342.109091h314.181818v195.490909h-314.181818V342.109091z m387.490909 441.018182c0 5.818182-2.327273 11.636364-6.981819 17.454545-5.818182 4.654545-11.636364 6.981818-18.618181 5.818182H331.636364c-11.636364-3.490909-22.109091-13.963636-24.436364-25.6h410.763636c5.818182 0 11.636364-2.327273 17.454546-6.981818 4.654545-4.654545 6.981818-10.472727 6.981818-17.454546V217.6l24.436364 8.145455v557.381818z"
          fill="#05C46D" p-id="3344"></path>
    <path d="M633.018182 390.981818H439.854545c-3.490909 0-5.818182 1.163636-8.145454 3.490909-2.327273 2.327273-3.490909 5.818182-3.490909 8.145455 0 3.490909 1.163636 5.818182 3.490909 8.145454 2.327273 2.327273 4.654545 3.490909 8.145454 3.490909h193.163637c3.490909 0 5.818182-1.163636 8.145454-3.490909 2.327273-2.327273 3.490909-4.654545 3.490909-8.145454 0-6.981818-5.818182-11.636364-11.636363-11.636364zM633.018182 464.290909H439.854545c-5.818182 0-11.636364 4.654545-11.636363 11.636364 0 5.818182 4.654545 11.636364 11.636363 11.636363h193.163637c5.818182 0 11.636364-4.654545 11.636363-11.636363s-5.818182-11.636364-11.636363-11.636364z"
          fill="#0BA85D" p-id="3345"></path>
    <path d="M300.218182 700.509091c4.654545-4.654545 6.981818-10.472727 6.981818-17.454546 0-5.818182-2.327273-11.636364-6.981818-17.454545-4.654545-4.654545-10.472727-6.981818-17.454546-6.981818h-48.872727c-13.963636 0-24.436364 10.472727-24.436364 24.436363s10.472727 24.436364 24.436364 24.436364h48.872727c6.981818 0 12.8-2.327273 17.454546-6.981818zM236.218182 316.509091h48.872727c13.963636 0 24.436364-10.472727 24.436364-24.436364s-11.636364-24.436364-24.436364-24.436363h-48.872727c-13.963636 0-24.436364 10.472727-24.436364 24.436363s10.472727 24.436364 24.436364 24.436364zM219.927273 470.109091c-4.654545 3.490909-6.981818 9.309091-6.981818 17.454545 0 5.818182 2.327273 11.636364 6.981818 17.454546 3.490909 4.654545 10.472727 6.981818 17.454545 6.981818h47.709091c13.963636 0 24.436364-10.472727 24.436364-24.436364 0-13.963636-10.472727-24.436364-24.436364-24.436363h-47.709091c-5.818182 0-12.8 2.327273-17.454545 6.981818z"
          fill="#05C46D" p-id="3346"></path>
    <path d="M790.109091 195.490909l-48.872727-1.163636c0-5.818182-2.327273-11.636364-6.981819-17.454546-2.327273-4.654545-9.309091-6.981818-16.290909-6.981818H285.090909c-5.818182 0-11.636364 2.327273-17.454545 6.981818-3.490909 4.654545-5.818182 10.472727-5.818182 17.454546v47.709091h23.272727c25.6 2.327273 46.545455 23.272727 48.872727 48.872727 0 13.963636-4.654545 25.6-15.127272 34.909091-9.309091 9.309091-22.109091 15.127273-34.909091 13.963636l-22.109091 1.163637v96.581818h22.109091c13.963636 0 26.763636 4.654545 34.909091 15.127272 9.309091 9.309091 15.127273 23.272727 13.963636 36.072728-2.327273 26.763636-23.272727 46.545455-50.036364 47.709091h-20.945454v96.581818h23.272727c26.763636 1.163636 47.709091 24.436364 47.709091 51.2s-22.109091 48.872727-48.872727 50.036363l-22.109091-2.327272v48.872727s22.109091 59.345455 57.018182 70.981818c11.636364 1.163636 24.436364 1.163636 36.072727 1.163637 79.127273 0 154.763636-17.454545 223.418182-47.709091H332.8c-11.636364-3.490909-22.109091-13.963636-24.436364-25.6H628.363636c43.054545-25.6 81.454545-55.854545 116.363637-90.763637V216.436364l24.436363 8.145454v435.2c17.454545-19.781818 32.581818-41.890909 46.545455-64V219.927273c-2.327273-11.636364-11.636364-20.945455-25.6-24.436364z m-96.581818 340.945455h-314.181818V340.945455h314.181818v195.490909z"
          fill="#05C46D" p-id="3347"></path>
    <path d="M441.018182 414.254545h193.163636c3.490909 0 5.818182-1.163636 8.145455-3.490909 2.327273-2.327273 3.490909-4.654545 3.490909-8.145454 0-6.981818-5.818182-11.636364-11.636364-11.636364H441.018182c-3.490909 0-5.818182 1.163636-8.145455 3.490909-2.327273 2.327273-3.490909 5.818182-3.490909 8.145455 0 3.490909 1.163636 5.818182 3.490909 8.145454 2.327273 2.327273 4.654545 3.490909 8.145455 3.490909zM441.018182 487.563636h193.163636c5.818182 0 11.636364-4.654545 11.636364-11.636363s-5.818182-11.636364-11.636364-11.636364H441.018182c-5.818182 0-11.636364 4.654545-11.636364 11.636364 0 5.818182 4.654545 11.636364 11.636364 11.636363z"
          fill="#05C46D" p-id="3348"></path>
    <path d="M233.890909 315.345455h48.872727c13.963636 0 24.436364-10.472727 24.436364-24.436364s-10.472727-24.436364-24.436364-24.436364h-48.872727c-13.963636 0-24.436364 10.472727-24.436364 24.436364s10.472727 24.436364 24.436364 24.436364zM282.763636 510.836364c13.963636 0 24.436364-10.472727 24.436364-24.436364 0-13.963636-10.472727-24.436364-24.436364-24.436364h-47.709091c-5.818182 0-11.636364 2.327273-17.454545 6.981819-4.654545 3.490909-6.981818 9.309091-6.981818 17.454545 0 5.818182 2.327273 11.636364 6.981818 17.454545 3.490909 4.654545 10.472727 6.981818 17.454545 6.981819h47.709091z"
          fill="#1DCE75" p-id="3349"></path>
    <path d="M731.927273 176.872727c-2.327273-4.654545-9.309091-6.981818-16.290909-6.981818H282.763636c-5.818182 0-11.636364 2.327273-17.454545 6.981818-3.490909 4.654545-5.818182 10.472727-5.818182 17.454546v47.709091h23.272727c25.6 2.327273 46.545455 23.272727 48.872728 48.872727 0 13.963636-4.654545 25.6-15.127273 34.909091-9.309091 9.309091-22.109091 15.127273-34.909091 13.963636l-22.109091 1.163637v96.581818h22.109091c13.963636 0 26.763636 4.654545 34.909091 15.127272 9.309091 9.309091 15.127273 23.272727 13.963636 36.072728-2.327273 26.763636-23.272727 46.545455-50.036363 47.709091h-20.945455v89.6c31.418182 8.145455 65.163636 11.636364 98.909091 11.636363 104.727273 0 200.145455-38.4 273.454545-101.236363H378.181818V339.781818h314.181818v132.654546c19.781818-25.6 36.072727-53.527273 50.036364-82.618182v-174.545455l24.436364 8.145455v97.745454c9.309091-33.745455 13.963636-69.818182 13.963636-105.890909v-20.945454l-39.563636-1.163637c-2.327273-5.818182-4.654545-11.636364-9.309091-16.290909z"
          fill="#1DCE75" p-id="3350"></path>
    <path d="M631.854545 388.654545H438.690909c-3.490909 0-5.818182 1.163636-8.145454 3.49091-2.327273 2.327273-3.490909 5.818182-3.49091 8.145454 0 3.490909 1.163636 5.818182 3.49091 8.145455 2.327273 2.327273 4.654545 3.490909 8.145454 3.490909h193.163636c3.490909 0 5.818182-1.163636 8.145455-3.490909 2.327273-2.327273 3.490909-4.654545 3.490909-8.145455 0-5.818182-5.818182-11.636364-11.636364-11.636364zM631.854545 461.963636H438.690909c-5.818182 0-11.636364 4.654545-11.636364 11.636364 0 5.818182 4.654545 11.636364 11.636364 11.636364h193.163636c5.818182 0 11.636364-4.654545 11.636364-11.636364s-5.818182-11.636364-11.636364-11.636364z"
          fill="#1DCE75" p-id="3351"></path>
    <path d="M307.2 292.072727c0-13.963636-10.472727-24.436364-24.436364-24.436363h-48.872727c-13.963636 0-24.436364 10.472727-24.436364 24.436363s10.472727 24.436364 24.436364 24.436364h48.872727c12.8 0 24.436364-11.636364 24.436364-24.436364z"
          fill="#48E1AA" p-id="3352"></path>
    <path d="M282.763636 169.890909c-5.818182 0-11.636364 2.327273-17.454545 6.981818-3.490909 4.654545-5.818182 10.472727-5.818182 17.454546v47.709091h23.272727c25.6 2.327273 46.545455 23.272727 48.872728 48.872727 0 13.963636-4.654545 25.6-15.127273 34.909091-9.309091 9.309091-22.109091 15.127273-34.909091 13.963636l-22.109091 1.163637v76.8c44.218182-6.981818 83.781818-23.272727 118.690909-47.709091v-29.090909h34.909091c45.381818-44.218182 74.472727-104.727273 80.290909-171.054546H282.763636z"
          fill="#48E1AA" p-id="3353"></path>
</svg>