<svg t="1736080895983" class="icon" viewBox="0 0 1024 1024" version="1.1" xmlns="http://www.w3.org/2000/svg"
     p-id="11338" width="200" height="200">
    <path d="M839.504457 14.628571H184.495543C116.472686 14.628571 58.514286 69.339429 58.514286 138.971429v746.057142c0 69.632 55.442286 124.342857 125.981257 124.342858h655.008914c70.538971 0 125.952-54.710857 125.952-124.342858V138.971429c0-69.632-55.413029-124.342857-125.952-124.342858zM285.257143 760.685714c-12.580571 0-25.1904-12.434286-25.1904-24.868571s10.064457-24.868571 25.1904-24.868572 25.1904 12.434286 25.1904 24.868572-10.064457 24.868571-25.1904 24.868571z m0-149.211428c-12.580571 0-25.1904-12.434286-25.1904-24.868572s10.064457-24.868571 25.1904-24.868571 25.1904 12.434286 25.1904 24.868571-10.064457 24.868571-25.1904 24.868572z m0-149.211429c-12.580571 0-25.1904-12.434286-25.1904-24.868571s10.064457-24.868571 25.1904-24.868572 25.1904 12.434286 25.1904 24.868572-10.064457 24.868571-25.1904 24.868571z m0-149.211428c-12.580571 0-25.1904-12.434286-25.1904-24.868572S270.1312 263.314286 285.257143 263.314286s25.1904 12.434286 25.1904 24.868571-10.064457 24.868571-25.1904 24.868572zM738.742857 760.685714H386.018743c-12.580571 0-25.1904-12.434286-25.1904-24.868571s10.093714-24.868571 25.1904-24.868572H738.742857c15.096686 0 25.1904 12.434286 25.1904 24.868572s-10.093714 24.868571-25.1904 24.868571z m0-149.211428H386.018743c-12.580571 0-25.1904-12.434286-25.1904-24.868572s10.093714-24.868571 25.1904-24.868571H738.742857c15.096686 0 25.1904 12.434286 25.1904 24.868571s-10.093714 24.868571-25.1904 24.868572z m0-149.211429H386.018743c-12.580571 0-25.1904-12.434286-25.1904-24.868571s10.093714-24.868571 25.1904-24.868572H738.742857c15.096686 0 25.1904 12.434286 25.1904 24.868572s-10.093714 24.868571-25.1904 24.868571z m0-149.211428H386.018743c-12.580571 0-25.1904-12.434286-25.1904-24.868572s10.093714-24.868571 25.1904-24.868571H738.742857c15.096686 0 25.1904 12.434286 25.1904 24.868571s-10.093714 24.868571-25.1904 24.868572z"
          fill="#70C7D1" p-id="11339"></path>
</svg>