<svg t="1736051298392" class="icon" viewBox="0 0 1024 1024" version="1.1" xmlns="http://www.w3.org/2000/svg" p-id="6854"
     width="200" height="200">
    <path d="M615.9 759.6l-48.8 20.7c-6.5 2.8-13.6-2.4-12.9-9.4l4.6-52.7c1.5-17.6 7.5-34.6 17.4-49.3l131.2-196 3.7-5.6 0.8-289.2c0.1-28.4-22.9-51.4-51.2-51.5L184 125.4c-28.4-0.1-51.4 22.9-51.5 51.2l-1.8 663c-0.1 28.4 22.9 51.4 51.2 51.5l476.6 1.3c28.4 0.1 51.4-22.9 51.5-51.2l0.5-192.2-48.4 72.3c-11.3 17-27.4 30.3-46.2 38.3z"
          fill="#CAC134" p-id="6855"></path>
    <path d="M940.9 305c8.5-12.7 5.1-29.8-7.6-38.3l-37.7-25.3c-12.7-8.5-29.8-5.1-38.3 7.6L711.1 467.4l-0.1 43.3-0.3 123.1V649l40.9-61.1L940.9 305"
          fill="#FE506B" p-id="6856"></path>
    <path d="M711 510.7l0.1-43.3-3.7 5.6-131.3 196c-9.8 14.7-15.8 31.7-17.4 49.3l-4.6 52.7c-0.6 7 6.5 12.2 12.9 9.4l48.8-20.7c18.8-8 34.9-21.3 46.3-38.3l48.4-72.3v-15.2l0.5-123.2z"
          fill="#8F3694" p-id="6857"></path>
    <path d="M616.2 250.6l-398.6-1.1c-13.3 0-24.1 10.7-24.2 24.1 0 13.3 10.7 24.1 24.1 24.2l398.6 1.1c13.3 0 24.1-10.7 24.2-24.1 0-13.3-10.8-24.1-24.1-24.2zM615.9 376.7l-398.6-1.1c-13.3 0-24.1 10.7-24.2 24.1 0 13.3 10.7 24.1 24.1 24.2l398.6 1.1c13.3 0 24.1-10.7 24.2-24.1 0-13.3-10.8-24.2-24.1-24.2zM615.6 502.8L217 501.7c-13.3 0-24.1 10.7-24.2 24.1 0 13.3 10.7 24.1 24.1 24.2l398.6 1.1c13.3 0 24.1-10.7 24.2-24.1 0-13.4-10.7-24.2-24.1-24.2z"
          fill="#FFBA3B" p-id="6858"></path>
</svg>