<svg t="1735018206945" class="icon" viewBox="0 0 1353 1024" version="1.1" xmlns="http://www.w3.org/2000/svg"
     p-id="39468" width="200" height="200">
    <path d="M635.900331875 61.19313406250001l-454.8939046875 449.704014375 17.515880625 27.117178125000002h107.0414925l3.8924175 344.089741875 56.440059375000004 82.1300175h155.6967159375v-350.317610625h225.76023750000002v350.317610625h161.535343125s58.386268125-77.84835749999999 64.22489531250001-107.0414925 0-303.6085959375 0-303.6085959375l112.88011875000001-11.6772534375 11.6772534375-38.924178749999996L635.900331875 61.19313406250001z"
          fill="#C4D883" p-id="39469"></path>
    <path d="M1085.344851875 447.5804834375l-364.0708209375-378.8620078125C698.56826 45.10447343750002 668.4668946874999 32 636.0300790625 32s-62.667928124999996 12.97472625-85.24395187500001 36.5887284375l-364.07082 378.8620078125c-37.626705937500006 38.924178749999996-32.955804375 72.788214375-26.4684421875 87.1901615625 4.6709015625 10.2500334375 19.462089374999998 37.626705937500006 62.538180937499995 37.626705937500006h53.326125v291.282605625c0 66.30085125 47.746993125 128.44979062500002 114.95607562500001 128.44979062500002H512.7701796875c18.4241109375 0 33.345046875-14.920935 33.345045937500004-33.345046875v-275.0641978125c0-32.955804375-5.060143125-51.37991625 28.8038925-51.37991625h122.48141625c33.864035625 0 28.8038925 18.553859062500003 28.8038925 51.37991625v278.4376265625c0 16.4779021875 13.3639678125 29.8418709375 29.8418709375 29.8418709375h124.94661468749999c67.5983240625 0 114.95607468749999-62.148939375000005 114.95607468749999-128.44979062500002V572.1378565625h53.326125c43.20583875 0 57.9970265625-27.3766725 62.667928124999996-37.626706874999996 5.8386271875-13.753210312499998 11.0285175-47.617245937499995-26.5981884375-86.93066625z m-36.199486875 64.74388499999999h-85.6331934375c-15.439924687499998 0-27.89566125 12.4557375-27.895662187499997 27.89566125v323.5896740625c0 32.955804375-21.408298125 68.6363025-55.1425865625 68.6363025H785.239431875V683.979996875c0-66.30085125-21.408298125-111.193404375-89.0066221875-111.193404375H573.881140625c-67.5983240625 0-89.0066221875 45.411541875-89.006623125 111.193404375v248.46600937500003h-94.1965125c-33.864035625 0-55.1425865625-35.1615084375-55.1425875-68.6363025V537.3655896875c0-13.753210312499998-11.1582646875-24.911474062499998-24.911474062499998-24.911474062499998H222.13630999999998c-0.9082312499999999 0-1.8164615625-4.1519128125-2.7246928125-4.1519128125 1.8164615625-3.7626703125 5.579131875-12.97472625 11.54750625-18.943100625L594.640701875 110.88633593750001c10.6392759375-11.1582646875 26.46844125-18.034869375 41.25963-18.034869375 14.7911878125 0 29.1931340625 7.006351875 40.35139875 18.034869375L1040.711793125 489.229355c5.968374375000001 5.968374375000001 9.731044687499999 15.3101775 11.54750625 18.943100625-1.2974728125000001 0-2.205703125 4.1519128125-3.113934375 4.1519128125z m0 0"
          fill="#2C9470" p-id="39470"></path>
</svg>